<?xml version="1.0" encoding="UTF-8" standalone="no"?><svg xmlns="http://www.w3.org/2000/svg" xmlns:xlink="http://www.w3.org/1999/xlink" contentScriptType="application/ecmascript" contentStyleType="text/css" height="313px" preserveAspectRatio="none" style="width:517px;height:313px;background:#F2F2F2;" version="1.1" viewBox="0 0 517 313" width="517px" zoomAndPan="magnify"><defs/><g><line style="stroke:#A80036;stroke-width:1.0;stroke-dasharray:5.0,5.0;" x1="56" x2="56" y1="37.6094" y2="306.4219"/><line style="stroke:#A80036;stroke-width:1.0;stroke-dasharray:5.0,5.0;" x1="169.5" x2="169.5" y1="37.6094" y2="306.4219"/><line style="stroke:#A80036;stroke-width:1.0;stroke-dasharray:5.0,5.0;" x1="461.5" x2="461.5" y1="37.6094" y2="306.4219"/><rect fill="#FEFECE" height="31.6094" rx="5" ry="5" style="stroke:#A80036;stroke-width:1.5;" width="42" x="35" y="5"/><text fill="#000000" font-family="sans-serif" font-size="14" lengthAdjust="spacing" textLength="28" x="42" y="26.5332">CBE</text><rect fill="#FEFECE" height="31.6094" rx="5" ry="5" style="stroke:#A80036;stroke-width:1.5;" width="43" x="148.5" y="5"/><text fill="#000000" font-family="sans-serif" font-size="14" lengthAdjust="spacing" textLength="29" x="155.5" y="26.5332">CBC</text><rect fill="#FEFECE" height="31.6094" rx="5" ry="5" style="stroke:#A80036;stroke-width:1.5;" width="45" x="439.5" y="5"/><text fill="#000000" font-family="sans-serif" font-size="14" lengthAdjust="spacing" textLength="31" x="446.5" y="26.5332">MME</text><polygon fill="#A80036" points="158,65.9609,168,69.9609,158,73.9609,162,69.9609" style="stroke:#A80036;stroke-width:1.0;"/><line style="stroke:#A80036;stroke-width:1.0;" x1="56" x2="164" y1="69.9609" y2="69.9609"/><text fill="#000000" font-family="sans-serif" font-size="13" lengthAdjust="spacing" textLength="77" x="74.5" y="65.1045">[1] CAP Alert</text><polygon fill="#A80036" points="450,96.3125,460,100.3125,450,104.3125,454,100.3125" style="stroke:#A80036;stroke-width:1.0;"/><line style="stroke:#A80036;stroke-width:1.0;" x1="170" x2="456" y1="100.3125" y2="100.3125"/><text fill="#000000" font-family="sans-serif" font-size="13" lengthAdjust="spacing" textLength="257" x="187.5" y="95.4561">[2] WRITE-REPLACE WARNING REQUEST</text><polygon fill="#A80036" points="181,126.6641,171,130.6641,181,134.6641,177,130.6641" style="stroke:#A80036;stroke-width:1.0;"/><line style="stroke:#A80036;stroke-width:1.0;" x1="175" x2="461" y1="130.6641" y2="130.6641"/><text fill="#000000" font-family="sans-serif" font-size="13" lengthAdjust="spacing" textLength="268" x="182" y="125.8076">[3] WRITE-REPLACE WARNING RESPONSE</text><path d="M6,148.6641 L6,164.6641 A5,5 0 0 0 11,169.6641 L505,169.6641 A5,5 0 0 0 510,164.6641 L510,153.6641 L500,143.6641 L11,143.6641 A5,5 0 0 0 6,148.6641 " fill="#FBFB77" style="stroke:#A80036;stroke-width:1.0;"/><path d="M500,143.6641 L500,151.1641 A2.5,2.5 0 0 0 502.5,153.6641 L510,153.6641 L500,143.6641 " fill="#FBFB77" style="stroke:#A80036;stroke-width:1.0;"/><text fill="#000000" font-family="sans-serif" font-size="13" lengthAdjust="spacing" textLength="244" x="131.75" y="162.1592">alert runs for at least one repetition period;</text><polygon fill="#A80036" points="158,193.3672,168,197.3672,158,201.3672,162,197.3672" style="stroke:#A80036;stroke-width:1.0;"/><line style="stroke:#A80036;stroke-width:1.0;" x1="56" x2="164" y1="197.3672" y2="197.3672"/><text fill="#000000" font-family="sans-serif" font-size="13" lengthAdjust="spacing" textLength="90" x="68" y="192.5107">[4] CAP Cancel</text><polygon fill="#A80036" points="450,223.7188,460,227.7188,450,231.7188,454,227.7188" style="stroke:#A80036;stroke-width:1.0;"/><line style="stroke:#A80036;stroke-width:1.0;" x1="170" x2="456" y1="227.7188" y2="227.7188"/><text fill="#000000" font-family="sans-serif" font-size="13" lengthAdjust="spacing" textLength="186" x="223" y="222.8623">[5] STOP WARNING REQUEST</text><line style="stroke:#A80036;stroke-width:2.0;" x1="176" x2="186" y1="253.0703" y2="263.0703"/><line style="stroke:#A80036;stroke-width:2.0;" x1="176" x2="186" y1="263.0703" y2="253.0703"/><line style="stroke:#A80036;stroke-width:2.0;" x1="444" x2="454" y1="253.0703" y2="263.0703"/><line style="stroke:#A80036;stroke-width:2.0;" x1="444" x2="454" y1="263.0703" y2="253.0703"/><line style="stroke:#A80036;stroke-width:1.0;" x1="182" x2="449" y1="258.0703" y2="258.0703"/><text fill="#000000" font-family="sans-serif" font-size="13" lengthAdjust="spacing" textLength="197" x="217.5" y="253.2139">[6] STOP WARNING RESPONSE</text><polygon fill="#A80036" points="67,284.4219,57,288.4219,67,292.4219,63,288.4219" style="stroke:#A80036;stroke-width:1.0;"/><line style="stroke:#A80036;stroke-width:1.0;stroke-dasharray:2.0,2.0;" x1="61" x2="169" y1="288.4219" y2="288.4219"/><text fill="#000000" font-family="sans-serif" font-size="13" lengthAdjust="spacing" textLength="52" x="87" y="283.5654">feedback</text><!--MD5=[069023d36a7a6ff9135986ac679f81ec]
@startuml
hide footbox
skinparam Shadowing false
skinparam BackgroundColor #f2f2f2
skinparam SequenceGroupBodyBackgroundColor transparent
skinparam roundcorner 10
skinparam ParticipantPadding 30
skinparam BoxPadding 10
skinparam SequenceGroupBorderColor #a0a0ff
skinparam SequenceMessageAlign center

participant CBE as cbe
participant CBC as cbc
participant MME as mme

cbe -> cbc: [1] CAP Alert
cbc -> mme: [2] WRITE-REPLACE WARNING REQUEST
mme -> cbc: [3] WRITE-REPLACE WARNING RESPONSE

note across: alert runs for at least one repetition period;

cbe -> cbc: [4] CAP Cancel
cbc -> mme: [5] STOP WARNING REQUEST
mme X-X cbc: [6] STOP WARNING RESPONSE

cbc - -> cbe: feedback

@enduml

PlantUML version 1.2022.0(Tue Jan 11 17:16:42 CET 2022)
(GPL source distribution)
Java Runtime: Java(TM) SE Runtime Environment
JVM: Java HotSpot(TM) Client VM
Default Encoding: Cp1252
Language: en
Country: GB
--></g></svg>