<?xml version="1.0" encoding="UTF-8" standalone="no"?><svg xmlns="http://www.w3.org/2000/svg" xmlns:xlink="http://www.w3.org/1999/xlink" contentScriptType="application/ecmascript" contentStyleType="text/css" height="639px" preserveAspectRatio="none" style="width:530px;height:639px;background:#F2F2F2;" version="1.1" viewBox="0 0 530 639" width="530px" zoomAndPan="magnify"><defs/><g><line style="stroke:#A80036;stroke-width:1.0;stroke-dasharray:5.0,5.0;" x1="56" x2="56" y1="37.6094" y2="632.6406"/><line style="stroke:#A80036;stroke-width:1.0;stroke-dasharray:5.0,5.0;" x1="169.5" x2="169.5" y1="37.6094" y2="632.6406"/><line style="stroke:#A80036;stroke-width:1.0;stroke-dasharray:5.0,5.0;" x1="461.5" x2="461.5" y1="37.6094" y2="632.6406"/><rect fill="#FEFECE" height="31.6094" rx="5" ry="5" style="stroke:#A80036;stroke-width:1.5;" width="42" x="35" y="5"/><text fill="#000000" font-family="sans-serif" font-size="14" lengthAdjust="spacing" textLength="28" x="42" y="26.5332">CBE</text><rect fill="#FEFECE" height="31.6094" rx="5" ry="5" style="stroke:#A80036;stroke-width:1.5;" width="43" x="148.5" y="5"/><text fill="#000000" font-family="sans-serif" font-size="14" lengthAdjust="spacing" textLength="29" x="155.5" y="26.5332">CBC</text><rect fill="#FEFECE" height="31.6094" rx="5" ry="5" style="stroke:#A80036;stroke-width:1.5;" width="45" x="439.5" y="5"/><text fill="#000000" font-family="sans-serif" font-size="14" lengthAdjust="spacing" textLength="31" x="446.5" y="26.5332">MME</text><polygon fill="#A80036" points="158,65.9609,168,69.9609,158,73.9609,162,69.9609" style="stroke:#A80036;stroke-width:1.0;"/><line style="stroke:#A80036;stroke-width:1.0;" x1="56" x2="164" y1="69.9609" y2="69.9609"/><text fill="#000000" font-family="sans-serif" font-size="13" lengthAdjust="spacing" textLength="77" x="74.5" y="65.1045">[1] CAP Alert</text><polygon fill="#A80036" points="450,96.3125,460,100.3125,450,104.3125,454,100.3125" style="stroke:#A80036;stroke-width:1.0;"/><line style="stroke:#A80036;stroke-width:1.0;" x1="170" x2="456" y1="100.3125" y2="100.3125"/><text fill="#000000" font-family="sans-serif" font-size="13" lengthAdjust="spacing" textLength="257" x="187.5" y="95.4561">[2] WRITE-REPLACE WARNING REQUEST</text><polygon fill="#A80036" points="181,126.6641,171,130.6641,181,134.6641,177,130.6641" style="stroke:#A80036;stroke-width:1.0;"/><line style="stroke:#A80036;stroke-width:1.0;" x1="175" x2="461" y1="130.6641" y2="130.6641"/><text fill="#000000" font-family="sans-serif" font-size="13" lengthAdjust="spacing" textLength="268" x="182" y="125.8076">[3] WRITE-REPLACE WARNING RESPONSE</text><path d="M113.5,145.6641 L233.5,145.6641 L233.5,153.6641 L223.5,163.6641 L108.5,163.6641 L108.5,150.6641 A5,5 0 0 1 113.5,145.6641 " fill="#EEEEEE" style="stroke:#A0A0FF;stroke-width:1.0;"/><rect fill="none" height="115.7578" rx="5" ry="5" style="stroke:#A0A0FF;stroke-width:2.0;" width="416" x="108.5" y="145.6641"/><text fill="#000000" font-family="sans-serif" font-size="13" font-weight="bold" lengthAdjust="spacing" textLength="80" x="123.5" y="160.1592">One or more</text><rect fill="#FBFB77" height="57" rx="5" ry="5" style="stroke:#A80036;stroke-width:1.0;" width="72" x="426" y="169.0156"/><text fill="#000000" font-family="sans-serif" font-size="13" lengthAdjust="spacing" textLength="55" x="430" y="186.5107">Receiving</text><text fill="#000000" font-family="sans-serif" font-size="13" lengthAdjust="spacing" textLength="60" x="430" y="202.8623">responses</text><text fill="#000000" font-family="sans-serif" font-size="13" lengthAdjust="spacing" textLength="61" x="430" y="219.2139">from eNBs</text><polygon fill="#A80036" points="181,249.4219,171,253.4219,181,257.4219,177,253.4219" style="stroke:#A80036;stroke-width:1.0;"/><line style="stroke:#A80036;stroke-width:1.0;" x1="175" x2="461" y1="253.4219" y2="253.4219"/><text fill="#000000" font-family="sans-serif" font-size="13" lengthAdjust="spacing" textLength="266" x="183" y="248.5654">[4] WRITE-REPLACE WARNING INDICATION</text><path d="M6,278.4219 L6,294.4219 A5,5 0 0 0 11,299.4219 L505,299.4219 A5,5 0 0 0 510,294.4219 L510,283.4219 L500,273.4219 L11,273.4219 A5,5 0 0 0 6,278.4219 " fill="#FBFB77" style="stroke:#A80036;stroke-width:1.0;"/><path d="M500,273.4219 L500,280.9219 A2.5,2.5 0 0 0 502.5,283.4219 L510,283.4219 L500,273.4219 " fill="#FBFB77" style="stroke:#A80036;stroke-width:1.0;"/><text fill="#000000" font-family="sans-serif" font-size="13" lengthAdjust="spacing" textLength="228" x="139.75" y="291.917">Runs for one or more repetition periods.</text><polygon fill="#A80036" points="158,323.125,168,327.125,158,331.125,162,327.125" style="stroke:#A80036;stroke-width:1.0;"/><line style="stroke:#A80036;stroke-width:1.0;" x1="56" x2="164" y1="327.125" y2="327.125"/><text fill="#000000" font-family="sans-serif" font-size="13" lengthAdjust="spacing" textLength="90" x="68" y="322.2686">[5] CAP Cancel</text><polygon fill="#A80036" points="450,353.4766,460,357.4766,450,361.4766,454,357.4766" style="stroke:#A80036;stroke-width:1.0;"/><line style="stroke:#A80036;stroke-width:1.0;" x1="170" x2="456" y1="357.4766" y2="357.4766"/><text fill="#000000" font-family="sans-serif" font-size="13" lengthAdjust="spacing" textLength="186" x="223" y="352.6201">[6] STOP WARNING REQUEST</text><polygon fill="#A80036" points="181,383.8281,171,387.8281,181,391.8281,177,387.8281" style="stroke:#A80036;stroke-width:1.0;"/><line style="stroke:#A80036;stroke-width:1.0;" x1="175" x2="461" y1="387.8281" y2="387.8281"/><text fill="#000000" font-family="sans-serif" font-size="13" lengthAdjust="spacing" textLength="197" x="217.5" y="382.9717">[7] STOP WARNING RESPONSE</text><path d="M113.5,402.8281 L233.5,402.8281 L233.5,410.8281 L223.5,420.8281 L108.5,420.8281 L108.5,407.8281 A5,5 0 0 1 113.5,402.8281 " fill="#EEEEEE" style="stroke:#A0A0FF;stroke-width:1.0;"/><rect fill="none" height="115.7578" rx="5" ry="5" style="stroke:#A0A0FF;stroke-width:2.0;" width="416" x="108.5" y="402.8281"/><text fill="#000000" font-family="sans-serif" font-size="13" font-weight="bold" lengthAdjust="spacing" textLength="80" x="123.5" y="417.3232">One or more</text><rect fill="#FBFB77" height="57" rx="5" ry="5" style="stroke:#A80036;stroke-width:1.0;" width="72" x="426" y="426.1797"/><text fill="#000000" font-family="sans-serif" font-size="13" lengthAdjust="spacing" textLength="55" x="430" y="443.6748">Receiving</text><text fill="#000000" font-family="sans-serif" font-size="13" lengthAdjust="spacing" textLength="60" x="430" y="460.0264">responses</text><text fill="#000000" font-family="sans-serif" font-size="13" lengthAdjust="spacing" textLength="61" x="430" y="476.3779">from eNBs</text><polygon fill="#A80036" points="181,506.5859,171,510.5859,181,514.5859,177,510.5859" style="stroke:#A80036;stroke-width:1.0;"/><line style="stroke:#A80036;stroke-width:1.0;" x1="175" x2="461" y1="510.5859" y2="510.5859"/><text fill="#000000" font-family="sans-serif" font-size="13" lengthAdjust="spacing" textLength="195" x="218.5" y="505.7295">[8] STOP WARNING INDICATION</text><polygon fill="#A80036" points="450,543.9375,460,547.9375,450,551.9375,454,547.9375" style="stroke:#A80036;stroke-width:1.0;"/><line style="stroke:#A80036;stroke-width:1.0;" x1="170" x2="456" y1="547.9375" y2="547.9375"/><text fill="#000000" font-family="sans-serif" font-size="13" lengthAdjust="spacing" textLength="140" x="246" y="543.0811">[9] ERROR INDICATION</text><path d="M6,565.9375 L6,581.9375 A5,5 0 0 0 11,586.9375 L505,586.9375 A5,5 0 0 0 510,581.9375 L510,570.9375 L500,560.9375 L11,560.9375 A5,5 0 0 0 6,565.9375 " fill="#FBFB77" style="stroke:#A80036;stroke-width:1.0;"/><path d="M500,560.9375 L500,568.4375 A2.5,2.5 0 0 0 502.5,570.9375 L510,570.9375 L500,560.9375 " fill="#FBFB77" style="stroke:#A80036;stroke-width:1.0;"/><text fill="#000000" font-family="sans-serif" font-size="13" lengthAdjust="spacing" textLength="412" x="47.75" y="579.4326">Broadcast stopped in at least all the alert area not affected by the error.</text><polygon fill="#A80036" points="67,610.6406,57,614.6406,67,618.6406,63,614.6406" style="stroke:#A80036;stroke-width:1.0;"/><line style="stroke:#A80036;stroke-width:1.0;stroke-dasharray:2.0,2.0;" x1="61" x2="169" y1="614.6406" y2="614.6406"/><text fill="#000000" font-family="sans-serif" font-size="13" lengthAdjust="spacing" textLength="52" x="87" y="609.7842">feedback</text><!--MD5=[fb1865aca5aabde168f14a158826cb40]
@startuml
hide footbox
skinparam Shadowing false
skinparam BackgroundColor #f2f2f2
skinparam SequenceGroupBodyBackgroundColor transparent
skinparam roundcorner 10
skinparam ParticipantPadding 30
skinparam BoxPadding 10
skinparam SequenceGroupBorderColor #a0a0ff
skinparam SequenceMessageAlign center

participant CBE as cbe
participant CBC as cbc
participant MME as mme

cbe -> cbc: [1] CAP Alert
cbc -> mme: [2] WRITE-REPLACE WARNING REQUEST
mme -> cbc: [3] WRITE-REPLACE WARNING RESPONSE
group One or more
    rnote over mme
        Receiving 
        responses 
        from eNBs
    endrnote
    mme -> cbc: [4] WRITE-REPLACE WARNING INDICATION
end
note across: Runs for one or more repetition periods.
cbe -> cbc: [5] CAP Cancel
cbc -> mme: [6] STOP WARNING REQUEST
mme -> cbc: [7] STOP WARNING RESPONSE
group One or more
    rnote over mme
        Receiving 
        responses 
        from eNBs
    endrnote
    mme -> cbc: [8] STOP WARNING INDICATION
end
cbc -> mme: [9] ERROR INDICATION
note across: Broadcast stopped in at least all the alert area not affected by the error.
cbc - -> cbe: feedback

@enduml

PlantUML version 1.2022.0(Tue Jan 11 17:16:42 CET 2022)
(GPL source distribution)
Java Runtime: Java(TM) SE Runtime Environment
JVM: Java HotSpot(TM) Client VM
Default Encoding: Cp1252
Language: en
Country: GB
--></g></svg>