<?xml version="1.0" encoding="UTF-8" standalone="no"?><svg xmlns="http://www.w3.org/2000/svg" xmlns:xlink="http://www.w3.org/1999/xlink" contentScriptType="application/ecmascript" contentStyleType="text/css" height="503px" preserveAspectRatio="none" style="width:543px;height:503px;background:#F2F2F2;" version="1.1" viewBox="0 0 543 503" width="543px" zoomAndPan="magnify"><defs/><g><line style="stroke:#A80036;stroke-width:1.0;stroke-dasharray:5.0,5.0;" x1="56" x2="56" y1="41.6094" y2="496.5313"/><line style="stroke:#A80036;stroke-width:1.0;stroke-dasharray:5.0,5.0;" x1="169.5" x2="169.5" y1="41.6094" y2="496.5313"/><line style="stroke:#A80036;stroke-width:1.0;stroke-dasharray:5.0,5.0;" x1="472.5" x2="472.5" y1="41.6094" y2="496.5313"/><rect fill="#FEFECE" height="31.6094" rx="5" ry="5" style="stroke:#A80036;stroke-width:1.5;" width="42" x="35" y="9"/><text fill="#000000" font-family="sans-serif" font-size="14" lengthAdjust="spacing" textLength="28" x="42" y="30.5332">CBE</text><rect fill="#FEFECE" height="31.6094" rx="5" ry="5" style="stroke:#A80036;stroke-width:1.5;" width="43" x="148.5" y="9"/><text fill="#000000" font-family="sans-serif" font-size="14" lengthAdjust="spacing" textLength="29" x="155.5" y="30.5332">CBC</text><rect fill="#FEFECE" height="31.6094" rx="5" ry="5" style="stroke:#A80036;stroke-width:1.5;" width="45" x="452.5" y="5"/><rect fill="#FEFECE" height="31.6094" rx="5" ry="5" style="stroke:#A80036;stroke-width:1.5;" width="45" x="448.5" y="9"/><text fill="#000000" font-family="sans-serif" font-size="14" lengthAdjust="spacing" textLength="31" x="455.5" y="30.5332">MME</text><polygon fill="#A80036" points="158,69.9609,168,73.9609,158,77.9609,162,73.9609" style="stroke:#A80036;stroke-width:1.0;"/><line style="stroke:#A80036;stroke-width:1.0;" x1="56" x2="164" y1="73.9609" y2="73.9609"/><text fill="#000000" font-family="sans-serif" font-size="13" lengthAdjust="spacing" textLength="77" x="74.5" y="69.1045">[1] CAP Alert</text><path d="M113.5,88.9609 L181.5,88.9609 L181.5,96.9609 L171.5,106.9609 L108.5,106.9609 L108.5,93.9609 A5,5 0 0 1 113.5,88.9609 " fill="#EEEEEE" style="stroke:#A0A0FF;stroke-width:1.0;"/><rect fill="none" height="139.7578" rx="5" ry="5" style="stroke:#A0A0FF;stroke-width:2.0;" width="429" x="108.5" y="88.9609"/><text fill="#000000" font-family="sans-serif" font-size="13" font-weight="bold" lengthAdjust="spacing" textLength="28" x="123.5" y="103.4561">loop</text><text fill="#000000" font-family="sans-serif" font-size="11" font-weight="bold" lengthAdjust="spacing" textLength="81" x="196.5" y="102.3799">[One per MME]</text><polygon fill="#A80036" points="461,125.6641,471,129.6641,461,133.6641,465,129.6641" style="stroke:#A80036;stroke-width:1.0;"/><line style="stroke:#A80036;stroke-width:1.0;" x1="170" x2="467" y1="129.6641" y2="129.6641"/><text fill="#000000" font-family="sans-serif" font-size="13" lengthAdjust="spacing" textLength="268" x="187.5" y="124.8076">[2.a] WRITE-REPLACE WARNING REQUEST</text><polygon fill="#A80036" points="461,156.0156,471,160.0156,461,164.0156,465,160.0156" style="stroke:#A80036;stroke-width:1.0;"/><line style="stroke:#A80036;stroke-width:1.0;" x1="170" x2="467" y1="160.0156" y2="160.0156"/><text fill="#000000" font-family="sans-serif" font-size="13" lengthAdjust="spacing" textLength="268" x="187.5" y="155.1592">[2.b] WRITE-REPLACE WARNING REQUEST</text><polygon fill="#A80036" points="181,186.3672,171,190.3672,181,194.3672,177,190.3672" style="stroke:#A80036;stroke-width:1.0;"/><line style="stroke:#A80036;stroke-width:1.0;" x1="175" x2="472" y1="190.3672" y2="190.3672"/><text fill="#000000" font-family="sans-serif" font-size="13" lengthAdjust="spacing" textLength="279" x="182" y="185.5107">[3.a] WRITE-REPLACE WARNING RESPONSE</text><polygon fill="#A80036" points="181,216.7188,171,220.7188,181,224.7188,177,220.7188" style="stroke:#A80036;stroke-width:1.0;"/><line style="stroke:#A80036;stroke-width:1.0;" x1="175" x2="472" y1="220.7188" y2="220.7188"/><text fill="#000000" font-family="sans-serif" font-size="13" lengthAdjust="spacing" textLength="279" x="182" y="215.8623">[3.b] WRITE-REPLACE WARNING RESPONSE</text><path d="M5,245.7188 L5,261.7188 A5,5 0 0 0 10,266.7188 L517,266.7188 A5,5 0 0 0 522,261.7188 L522,250.7188 L512,240.7188 L10,240.7188 A5,5 0 0 0 5,245.7188 " fill="#FBFB77" style="stroke:#A80036;stroke-width:1.0;"/><path d="M512,240.7188 L512,248.2188 A2.5,2.5 0 0 0 514.5,250.7188 L522,250.7188 L512,240.7188 " fill="#FBFB77" style="stroke:#A80036;stroke-width:1.0;"/><text fill="#000000" font-family="sans-serif" font-size="13" lengthAdjust="spacing" textLength="276" x="121.25" y="259.2139">Broadcast runs for 2 broadcast periods or more.</text><polygon fill="#A80036" points="158,290.4219,168,294.4219,158,298.4219,162,294.4219" style="stroke:#A80036;stroke-width:1.0;"/><line style="stroke:#A80036;stroke-width:1.0;" x1="56" x2="164" y1="294.4219" y2="294.4219"/><text fill="#000000" font-family="sans-serif" font-size="13" lengthAdjust="spacing" textLength="90" x="68" y="289.5654">[4] CAP Cancel</text><path d="M113.5,309.4219 L181.5,309.4219 L181.5,317.4219 L171.5,327.4219 L108.5,327.4219 L108.5,314.4219 A5,5 0 0 1 113.5,309.4219 " fill="#EEEEEE" style="stroke:#A0A0FF;stroke-width:1.0;"/><rect fill="none" height="139.7578" rx="5" ry="5" style="stroke:#A0A0FF;stroke-width:2.0;" width="429" x="108.5" y="309.4219"/><text fill="#000000" font-family="sans-serif" font-size="13" font-weight="bold" lengthAdjust="spacing" textLength="28" x="123.5" y="323.917">loop</text><text fill="#000000" font-family="sans-serif" font-size="11" font-weight="bold" lengthAdjust="spacing" textLength="81" x="196.5" y="322.8408">[One per MME]</text><polygon fill="#A80036" points="461,346.125,471,350.125,461,354.125,465,350.125" style="stroke:#A80036;stroke-width:1.0;"/><line style="stroke:#A80036;stroke-width:1.0;" x1="170" x2="467" y1="350.125" y2="350.125"/><text fill="#000000" font-family="sans-serif" font-size="13" lengthAdjust="spacing" textLength="197" x="223" y="345.2686">[5.a] STOP WARNING REQUEST</text><polygon fill="#A80036" points="461,376.4766,471,380.4766,461,384.4766,465,380.4766" style="stroke:#A80036;stroke-width:1.0;"/><line style="stroke:#A80036;stroke-width:1.0;" x1="170" x2="467" y1="380.4766" y2="380.4766"/><text fill="#000000" font-family="sans-serif" font-size="13" lengthAdjust="spacing" textLength="197" x="223" y="375.6201">[5.b] STOP WARNING REQUEST</text><polygon fill="#A80036" points="181,406.8281,171,410.8281,181,414.8281,177,410.8281" style="stroke:#A80036;stroke-width:1.0;"/><line style="stroke:#A80036;stroke-width:1.0;" x1="175" x2="472" y1="410.8281" y2="410.8281"/><text fill="#000000" font-family="sans-serif" font-size="13" lengthAdjust="spacing" textLength="208" x="217.5" y="405.9717">[6.a] STOP WARNING RESPONSE</text><polygon fill="#A80036" points="181,437.1797,171,441.1797,181,445.1797,177,441.1797" style="stroke:#A80036;stroke-width:1.0;"/><line style="stroke:#A80036;stroke-width:1.0;" x1="175" x2="472" y1="441.1797" y2="441.1797"/><text fill="#000000" font-family="sans-serif" font-size="13" lengthAdjust="spacing" textLength="208" x="217.5" y="436.3232">[6.b] STOP WARNING RESPONSE</text><polygon fill="#A80036" points="67,474.5313,57,478.5313,67,482.5313,63,478.5313" style="stroke:#A80036;stroke-width:1.0;"/><line style="stroke:#A80036;stroke-width:1.0;stroke-dasharray:2.0,2.0;" x1="61" x2="169" y1="478.5313" y2="478.5313"/><text fill="#000000" font-family="sans-serif" font-size="13" lengthAdjust="spacing" textLength="52" x="87" y="473.6748">feedback</text><!--MD5=[84635026271ab294777b6b55a2dc3acf]
@startuml
hide footbox
skinparam Shadowing false
skinparam BackgroundColor #f2f2f2
skinparam SequenceGroupBodyBackgroundColor transparent
skinparam roundcorner 10
skinparam ParticipantPadding 30
skinparam BoxPadding 10
skinparam SequenceGroupBorderColor #a0a0ff
skinparam SequenceMessageAlign center

participant CBE as cbe
participant CBC as cbc
collections MME as mme

cbe -> cbc: [1] CAP Alert
loop One per MME
cbc -> mme: [2.a] WRITE-REPLACE WARNING REQUEST
cbc -> mme: [2.b] WRITE-REPLACE WARNING REQUEST
mme -> cbc: [3.a] WRITE-REPLACE WARNING RESPONSE
mme -> cbc: [3.b] WRITE-REPLACE WARNING RESPONSE
end
note across: Broadcast runs for 2 broadcast periods or more.
cbe -> cbc: [4] CAP Cancel
loop One per MME
cbc -> mme: [5.a] STOP WARNING REQUEST
cbc -> mme: [5.b] STOP WARNING REQUEST
mme -> cbc: [6.a] STOP WARNING RESPONSE
mme -> cbc: [6.b] STOP WARNING RESPONSE
end
cbc - -> cbe: feedback

@enduml

PlantUML version 1.2022.0(Tue Jan 11 17:16:42 CET 2022)
(GPL source distribution)
Java Runtime: Java(TM) SE Runtime Environment
JVM: Java HotSpot(TM) Client VM
Default Encoding: Cp1252
Language: en
Country: GB
--></g></svg>