<?xml version="1.0" encoding="UTF-8" standalone="no"?><svg xmlns="http://www.w3.org/2000/svg" xmlns:xlink="http://www.w3.org/1999/xlink" contentScriptType="application/ecmascript" contentStyleType="text/css" height="811px" preserveAspectRatio="none" style="width:688px;height:811px;background:#F2F2F2;" version="1.1" viewBox="0 0 688 811" width="688px" zoomAndPan="magnify"><defs/><g><line style="stroke:#A80036;stroke-width:1.0;stroke-dasharray:5.0,5.0;" x1="56" x2="56" y1="41.6094" y2="804.0469"/><line style="stroke:#A80036;stroke-width:1.0;stroke-dasharray:5.0,5.0;" x1="247.5" x2="247.5" y1="41.6094" y2="804.0469"/><line style="stroke:#A80036;stroke-width:1.0;stroke-dasharray:5.0,5.0;" x1="617.5" x2="617.5" y1="41.6094" y2="804.0469"/><rect fill="#FEFECE" height="31.6094" rx="5" ry="5" style="stroke:#A80036;stroke-width:1.5;" width="42" x="35" y="9"/><text fill="#000000" font-family="sans-serif" font-size="14" lengthAdjust="spacing" textLength="28" x="42" y="30.5332">CBE</text><rect fill="#FEFECE" height="31.6094" rx="5" ry="5" style="stroke:#A80036;stroke-width:1.5;" width="43" x="226.5" y="9"/><text fill="#000000" font-family="sans-serif" font-size="14" lengthAdjust="spacing" textLength="29" x="233.5" y="30.5332">CBC</text><rect fill="#FEFECE" height="31.6094" rx="5" ry="5" style="stroke:#A80036;stroke-width:1.5;" width="45" x="597.5" y="5"/><rect fill="#FEFECE" height="31.6094" rx="5" ry="5" style="stroke:#A80036;stroke-width:1.5;" width="45" x="593.5" y="9"/><text fill="#000000" font-family="sans-serif" font-size="14" lengthAdjust="spacing" textLength="31" x="600.5" y="30.5332">MME</text><polygon fill="#A80036" points="236,69.9609,246,73.9609,236,77.9609,240,73.9609" style="stroke:#A80036;stroke-width:1.0;"/><line style="stroke:#A80036;stroke-width:1.0;" x1="56" x2="242" y1="73.9609" y2="73.9609"/><text fill="#000000" font-family="sans-serif" font-size="13" lengthAdjust="spacing" textLength="77" x="113.5" y="69.1045">[1] CAP Alert</text><path d="M191.5,88.9609 L259.5,88.9609 L259.5,96.9609 L249.5,106.9609 L186.5,106.9609 L186.5,93.9609 A5,5 0 0 1 191.5,88.9609 " fill="#EEEEEE" style="stroke:#A0A0FF;stroke-width:1.0;"/><rect fill="none" height="200.4609" rx="5" ry="5" style="stroke:#A0A0FF;stroke-width:2.0;" width="496" x="186.5" y="88.9609"/><text fill="#000000" font-family="sans-serif" font-size="13" font-weight="bold" lengthAdjust="spacing" textLength="28" x="201.5" y="103.4561">loop</text><text fill="#000000" font-family="sans-serif" font-size="11" font-weight="bold" lengthAdjust="spacing" textLength="81" x="274.5" y="102.3799">[One per MME]</text><polygon fill="#A80036" points="606,125.6641,616,129.6641,606,133.6641,610,129.6641" style="stroke:#A80036;stroke-width:1.0;"/><line style="stroke:#A80036;stroke-width:1.0;" x1="248" x2="612" y1="129.6641" y2="129.6641"/><text fill="#000000" font-family="sans-serif" font-size="13" lengthAdjust="spacing" textLength="307" x="279.5" y="124.8076">[2.a] WRITE-REPLACE WARNING REQUEST (local)</text><polygon fill="#A80036" points="606,156.0156,616,160.0156,606,164.0156,610,160.0156" style="stroke:#A80036;stroke-width:1.0;"/><line style="stroke:#A80036;stroke-width:1.0;" x1="248" x2="612" y1="160.0156" y2="160.0156"/><text fill="#000000" font-family="sans-serif" font-size="13" lengthAdjust="spacing" textLength="346" x="260" y="155.1592">[2.b] WRITE-REPLACE WARNING REQUEST (additional 1)</text><polygon fill="#A80036" points="606,186.3672,616,190.3672,606,194.3672,610,190.3672" style="stroke:#A80036;stroke-width:1.0;"/><line style="stroke:#A80036;stroke-width:1.0;" x1="248" x2="612" y1="190.3672" y2="190.3672"/><text fill="#000000" font-family="sans-serif" font-size="13" lengthAdjust="spacing" textLength="346" x="260" y="185.5107">[2.c] WRITE-REPLACE WARNING REQUEST (additional 2)</text><polygon fill="#A80036" points="259,216.7188,249,220.7188,259,224.7188,255,220.7188" style="stroke:#A80036;stroke-width:1.0;"/><line style="stroke:#A80036;stroke-width:1.0;" x1="253" x2="617" y1="220.7188" y2="220.7188"/><text fill="#000000" font-family="sans-serif" font-size="13" lengthAdjust="spacing" textLength="283" x="291.5" y="215.8623">[3.a]] WRITE-REPLACE WARNING RESPONSE</text><polygon fill="#A80036" points="259,247.0703,249,251.0703,259,255.0703,255,251.0703" style="stroke:#A80036;stroke-width:1.0;"/><line style="stroke:#A80036;stroke-width:1.0;" x1="253" x2="617" y1="251.0703" y2="251.0703"/><text fill="#000000" font-family="sans-serif" font-size="13" lengthAdjust="spacing" textLength="279" x="293.5" y="246.2139">[3.b] WRITE-REPLACE WARNING RESPONSE</text><polygon fill="#A80036" points="259,277.4219,249,281.4219,259,285.4219,255,281.4219" style="stroke:#A80036;stroke-width:1.0;"/><line style="stroke:#A80036;stroke-width:1.0;" x1="253" x2="617" y1="281.4219" y2="281.4219"/><text fill="#000000" font-family="sans-serif" font-size="13" lengthAdjust="spacing" textLength="279" x="293.5" y="276.5654">[3.c] WRITE-REPLACE WARNING RESPONSE</text><path d="M5,306.4219 L5,322.4219 A5,5 0 0 0 10,327.4219 L662,327.4219 A5,5 0 0 0 667,322.4219 L667,311.4219 L657,301.4219 L10,301.4219 A5,5 0 0 0 5,306.4219 " fill="#FBFB77" style="stroke:#A80036;stroke-width:1.0;"/><path d="M657,301.4219 L657,308.9219 A2.5,2.5 0 0 0 659.5,311.4219 L667,311.4219 L657,301.4219 " fill="#FBFB77" style="stroke:#A80036;stroke-width:1.0;"/><text fill="#000000" font-family="sans-serif" font-size="13" lengthAdjust="spacing" textLength="276" x="193.75" y="319.917">Broadcast runs for 2 broadcast periods or more.</text><polygon fill="#A80036" points="236,351.125,246,355.125,236,359.125,240,355.125" style="stroke:#A80036;stroke-width:1.0;"/><line style="stroke:#A80036;stroke-width:1.0;" x1="56" x2="242" y1="355.125" y2="355.125"/><text fill="#000000" font-family="sans-serif" font-size="13" lengthAdjust="spacing" textLength="129" x="87.5" y="350.2686">[4] CAP Cancel (local)</text><path d="M191.5,370.125 L259.5,370.125 L259.5,378.125 L249.5,388.125 L186.5,388.125 L186.5,375.125 A5,5 0 0 1 191.5,370.125 " fill="#EEEEEE" style="stroke:#A0A0FF;stroke-width:1.0;"/><rect fill="none" height="79.0547" rx="5" ry="5" style="stroke:#A0A0FF;stroke-width:2.0;" width="496" x="186.5" y="370.125"/><text fill="#000000" font-family="sans-serif" font-size="13" font-weight="bold" lengthAdjust="spacing" textLength="28" x="201.5" y="384.6201">loop</text><text fill="#000000" font-family="sans-serif" font-size="11" font-weight="bold" lengthAdjust="spacing" textLength="81" x="274.5" y="383.5439">[One per MME]</text><polygon fill="#A80036" points="606,406.8281,616,410.8281,606,414.8281,610,410.8281" style="stroke:#A80036;stroke-width:1.0;"/><line style="stroke:#A80036;stroke-width:1.0;" x1="248" x2="612" y1="410.8281" y2="410.8281"/><text fill="#000000" font-family="sans-serif" font-size="13" lengthAdjust="spacing" textLength="236" x="315" y="405.9717">[5.a] STOP WARNING REQUEST (local)</text><polygon fill="#A80036" points="259,437.1797,249,441.1797,259,445.1797,255,441.1797" style="stroke:#A80036;stroke-width:1.0;"/><line style="stroke:#A80036;stroke-width:1.0;" x1="253" x2="617" y1="441.1797" y2="441.1797"/><text fill="#000000" font-family="sans-serif" font-size="13" lengthAdjust="spacing" textLength="208" x="329" y="436.3232">[5.b] STOP WARNING RESPONSE</text><polygon fill="#A80036" points="67,474.5313,57,478.5313,67,482.5313,63,478.5313" style="stroke:#A80036;stroke-width:1.0;"/><line style="stroke:#A80036;stroke-width:1.0;stroke-dasharray:2.0,2.0;" x1="61" x2="247" y1="478.5313" y2="478.5313"/><text fill="#000000" font-family="sans-serif" font-size="13" lengthAdjust="spacing" textLength="52" x="126" y="473.6748">feedback</text><polygon fill="#A80036" points="236,504.8828,246,508.8828,236,512.8828,240,508.8828" style="stroke:#A80036;stroke-width:1.0;"/><line style="stroke:#A80036;stroke-width:1.0;" x1="56" x2="242" y1="508.8828" y2="508.8828"/><text fill="#000000" font-family="sans-serif" font-size="13" lengthAdjust="spacing" textLength="168" x="68" y="504.0264">[6] CAP Cancel (additional 1)</text><path d="M191.5,523.8828 L259.5,523.8828 L259.5,531.8828 L249.5,541.8828 L186.5,541.8828 L186.5,528.8828 A5,5 0 0 1 191.5,523.8828 " fill="#EEEEEE" style="stroke:#A0A0FF;stroke-width:1.0;"/><rect fill="none" height="79.0547" rx="5" ry="5" style="stroke:#A0A0FF;stroke-width:2.0;" width="496" x="186.5" y="523.8828"/><text fill="#000000" font-family="sans-serif" font-size="13" font-weight="bold" lengthAdjust="spacing" textLength="28" x="201.5" y="538.3779">loop</text><text fill="#000000" font-family="sans-serif" font-size="11" font-weight="bold" lengthAdjust="spacing" textLength="81" x="274.5" y="537.3018">[One per MME]</text><polygon fill="#A80036" points="606,560.5859,616,564.5859,606,568.5859,610,564.5859" style="stroke:#A80036;stroke-width:1.0;"/><line style="stroke:#A80036;stroke-width:1.0;" x1="248" x2="612" y1="564.5859" y2="564.5859"/><text fill="#000000" font-family="sans-serif" font-size="13" lengthAdjust="spacing" textLength="275" x="295.5" y="559.7295">[7.a] STOP WARNING REQUEST (additional 1)</text><polygon fill="#A80036" points="259,590.9375,249,594.9375,259,598.9375,255,594.9375" style="stroke:#A80036;stroke-width:1.0;"/><line style="stroke:#A80036;stroke-width:1.0;" x1="253" x2="617" y1="594.9375" y2="594.9375"/><text fill="#000000" font-family="sans-serif" font-size="13" lengthAdjust="spacing" textLength="208" x="329" y="590.0811">[7.b] STOP WARNING RESPONSE</text><polygon fill="#A80036" points="67,628.2891,57,632.2891,67,636.2891,63,632.2891" style="stroke:#A80036;stroke-width:1.0;"/><line style="stroke:#A80036;stroke-width:1.0;stroke-dasharray:2.0,2.0;" x1="61" x2="247" y1="632.2891" y2="632.2891"/><text fill="#000000" font-family="sans-serif" font-size="13" lengthAdjust="spacing" textLength="52" x="126" y="627.4326">feedback</text><polygon fill="#A80036" points="236,658.6406,246,662.6406,236,666.6406,240,662.6406" style="stroke:#A80036;stroke-width:1.0;"/><line style="stroke:#A80036;stroke-width:1.0;" x1="56" x2="242" y1="662.6406" y2="662.6406"/><text fill="#000000" font-family="sans-serif" font-size="13" lengthAdjust="spacing" textLength="168" x="68" y="657.7842">[8] CAP Cancel (additional 2)</text><path d="M191.5,677.6406 L259.5,677.6406 L259.5,685.6406 L249.5,695.6406 L186.5,695.6406 L186.5,682.6406 A5,5 0 0 1 191.5,677.6406 " fill="#EEEEEE" style="stroke:#A0A0FF;stroke-width:1.0;"/><rect fill="none" height="79.0547" rx="5" ry="5" style="stroke:#A0A0FF;stroke-width:2.0;" width="496" x="186.5" y="677.6406"/><text fill="#000000" font-family="sans-serif" font-size="13" font-weight="bold" lengthAdjust="spacing" textLength="28" x="201.5" y="692.1357">loop</text><text fill="#000000" font-family="sans-serif" font-size="11" font-weight="bold" lengthAdjust="spacing" textLength="81" x="274.5" y="691.0596">[One per MME]</text><polygon fill="#A80036" points="606,714.3438,616,718.3438,606,722.3438,610,718.3438" style="stroke:#A80036;stroke-width:1.0;"/><line style="stroke:#A80036;stroke-width:1.0;" x1="248" x2="612" y1="718.3438" y2="718.3438"/><text fill="#000000" font-family="sans-serif" font-size="13" lengthAdjust="spacing" textLength="275" x="295.5" y="713.4873">[9.a] STOP WARNING REQUEST (additional 2)</text><polygon fill="#A80036" points="259,744.6953,249,748.6953,259,752.6953,255,748.6953" style="stroke:#A80036;stroke-width:1.0;"/><line style="stroke:#A80036;stroke-width:1.0;" x1="253" x2="617" y1="748.6953" y2="748.6953"/><text fill="#000000" font-family="sans-serif" font-size="13" lengthAdjust="spacing" textLength="208" x="329" y="743.8389">[9.b] STOP WARNING RESPONSE</text><polygon fill="#A80036" points="67,782.0469,57,786.0469,67,790.0469,63,786.0469" style="stroke:#A80036;stroke-width:1.0;"/><line style="stroke:#A80036;stroke-width:1.0;stroke-dasharray:2.0,2.0;" x1="61" x2="247" y1="786.0469" y2="786.0469"/><text fill="#000000" font-family="sans-serif" font-size="13" lengthAdjust="spacing" textLength="52" x="126" y="781.1904">feedback</text><!--MD5=[c80aa6ec125c6bb187210f01749a4a99]
@startuml
hide footbox
skinparam Shadowing false
skinparam BackgroundColor #f2f2f2
skinparam SequenceGroupBodyBackgroundColor transparent
skinparam roundcorner 10
skinparam ParticipantPadding 30
skinparam BoxPadding 10
skinparam SequenceGroupBorderColor #a0a0ff
skinparam SequenceMessageAlign center

participant CBE as cbe
participant CBC as cbc
collections MME as mme

cbe -> cbc: [1] CAP Alert
loop One per MME
cbc -> mme: [2.a] WRITE-REPLACE WARNING REQUEST (local)
cbc -> mme: [2.b] WRITE-REPLACE WARNING REQUEST (additional 1)
cbc -> mme: [2.c] WRITE-REPLACE WARNING REQUEST (additional 2)
mme -> cbc: [3.a]] WRITE-REPLACE WARNING RESPONSE
mme -> cbc: [3.b] WRITE-REPLACE WARNING RESPONSE
mme -> cbc: [3.c] WRITE-REPLACE WARNING RESPONSE
end
note across: Broadcast runs for 2 broadcast periods or more.
cbe -> cbc: [4] CAP Cancel (local)
loop One per MME
cbc -> mme: [5.a] STOP WARNING REQUEST (local)
mme -> cbc: [5.b] STOP WARNING RESPONSE
end
cbc - -> cbe: feedback
cbe -> cbc: [6] CAP Cancel (additional 1)
loop One per MME
cbc -> mme: [7.a] STOP WARNING REQUEST (additional 1)
mme -> cbc: [7.b] STOP WARNING RESPONSE
end
cbc - -> cbe: feedback
cbe -> cbc: [8] CAP Cancel (additional 2)
loop One per MME
cbc -> mme: [9.a] STOP WARNING REQUEST (additional 2)
mme -> cbc: [9.b] STOP WARNING RESPONSE
end
cbc - -> cbe: feedback
@enduml

PlantUML version 1.2022.0(Tue Jan 11 17:16:42 CET 2022)
(GPL source distribution)
Java Runtime: Java(TM) SE Runtime Environment
JVM: Java HotSpot(TM) Client VM
Default Encoding: Cp1252
Language: en
Country: GB
--></g></svg>