<?xml version="1.0" encoding="UTF-8" standalone="no"?><svg xmlns="http://www.w3.org/2000/svg" xmlns:xlink="http://www.w3.org/1999/xlink" contentScriptType="application/ecmascript" contentStyleType="text/css" height="624px" preserveAspectRatio="none" style="width:610px;height:624px;background:#F2F2F2;" version="1.1" viewBox="0 0 610 624" width="610px" zoomAndPan="magnify"><defs/><g><line style="stroke:#A80036;stroke-width:1.0;stroke-dasharray:5.0,5.0;" x1="56" x2="56" y1="41.6094" y2="617.9375"/><line style="stroke:#A80036;stroke-width:1.0;stroke-dasharray:5.0,5.0;" x1="169.5" x2="169.5" y1="41.6094" y2="617.9375"/><line style="stroke:#A80036;stroke-width:1.0;stroke-dasharray:5.0,5.0;" x1="539.5" x2="539.5" y1="41.6094" y2="617.9375"/><rect fill="#FEFECE" height="31.6094" rx="5" ry="5" style="stroke:#A80036;stroke-width:1.5;" width="42" x="35" y="9"/><text fill="#000000" font-family="sans-serif" font-size="14" lengthAdjust="spacing" textLength="28" x="42" y="30.5332">CBE</text><rect fill="#FEFECE" height="31.6094" rx="5" ry="5" style="stroke:#A80036;stroke-width:1.5;" width="43" x="148.5" y="9"/><text fill="#000000" font-family="sans-serif" font-size="14" lengthAdjust="spacing" textLength="29" x="155.5" y="30.5332">CBC</text><rect fill="#FEFECE" height="31.6094" rx="5" ry="5" style="stroke:#A80036;stroke-width:1.5;" width="45" x="519.5" y="5"/><rect fill="#FEFECE" height="31.6094" rx="5" ry="5" style="stroke:#A80036;stroke-width:1.5;" width="45" x="515.5" y="9"/><text fill="#000000" font-family="sans-serif" font-size="14" lengthAdjust="spacing" textLength="31" x="522.5" y="30.5332">MME</text><polygon fill="#A80036" points="158,69.9609,168,73.9609,158,77.9609,162,73.9609" style="stroke:#A80036;stroke-width:1.0;"/><line style="stroke:#A80036;stroke-width:1.0;" x1="56" x2="164" y1="73.9609" y2="73.9609"/><text fill="#000000" font-family="sans-serif" font-size="13" lengthAdjust="spacing" textLength="77" x="74.5" y="69.1045">[1] CAP Alert</text><path d="M113.5,88.9609 L181.5,88.9609 L181.5,96.9609 L171.5,106.9609 L108.5,106.9609 L108.5,93.9609 A5,5 0 0 1 113.5,88.9609 " fill="#EEEEEE" style="stroke:#A0A0FF;stroke-width:1.0;"/><rect fill="none" height="200.4609" rx="5" ry="5" style="stroke:#A0A0FF;stroke-width:2.0;" width="496" x="108.5" y="88.9609"/><text fill="#000000" font-family="sans-serif" font-size="13" font-weight="bold" lengthAdjust="spacing" textLength="28" x="123.5" y="103.4561">loop</text><text fill="#000000" font-family="sans-serif" font-size="11" font-weight="bold" lengthAdjust="spacing" textLength="81" x="196.5" y="102.3799">[One per MME]</text><polygon fill="#A80036" points="528,125.6641,538,129.6641,528,133.6641,532,129.6641" style="stroke:#A80036;stroke-width:1.0;"/><line style="stroke:#A80036;stroke-width:1.0;" x1="170" x2="534" y1="129.6641" y2="129.6641"/><text fill="#000000" font-family="sans-serif" font-size="13" lengthAdjust="spacing" textLength="307" x="201.5" y="124.8076">[2.a] WRITE-REPLACE WARNING REQUEST (local)</text><polygon fill="#A80036" points="528,156.0156,538,160.0156,528,164.0156,532,160.0156" style="stroke:#A80036;stroke-width:1.0;"/><line style="stroke:#A80036;stroke-width:1.0;" x1="170" x2="534" y1="160.0156" y2="160.0156"/><text fill="#000000" font-family="sans-serif" font-size="13" lengthAdjust="spacing" textLength="346" x="182" y="155.1592">[2.b] WRITE-REPLACE WARNING REQUEST (additional 1)</text><polygon fill="#A80036" points="528,186.3672,538,190.3672,528,194.3672,532,190.3672" style="stroke:#A80036;stroke-width:1.0;"/><line style="stroke:#A80036;stroke-width:1.0;" x1="170" x2="534" y1="190.3672" y2="190.3672"/><text fill="#000000" font-family="sans-serif" font-size="13" lengthAdjust="spacing" textLength="346" x="182" y="185.5107">[2.c] WRITE-REPLACE WARNING REQUEST (additional 2)</text><polygon fill="#A80036" points="181,216.7188,171,220.7188,181,224.7188,177,220.7188" style="stroke:#A80036;stroke-width:1.0;"/><line style="stroke:#A80036;stroke-width:1.0;" x1="175" x2="539" y1="220.7188" y2="220.7188"/><text fill="#000000" font-family="sans-serif" font-size="13" lengthAdjust="spacing" textLength="283" x="213.5" y="215.8623">[3.a]] WRITE-REPLACE WARNING RESPONSE</text><polygon fill="#A80036" points="181,247.0703,171,251.0703,181,255.0703,177,251.0703" style="stroke:#A80036;stroke-width:1.0;"/><line style="stroke:#A80036;stroke-width:1.0;" x1="175" x2="539" y1="251.0703" y2="251.0703"/><text fill="#000000" font-family="sans-serif" font-size="13" lengthAdjust="spacing" textLength="279" x="215.5" y="246.2139">[3.b] WRITE-REPLACE WARNING RESPONSE</text><polygon fill="#A80036" points="181,277.4219,171,281.4219,181,285.4219,177,281.4219" style="stroke:#A80036;stroke-width:1.0;"/><line style="stroke:#A80036;stroke-width:1.0;" x1="175" x2="539" y1="281.4219" y2="281.4219"/><text fill="#000000" font-family="sans-serif" font-size="13" lengthAdjust="spacing" textLength="279" x="215.5" y="276.5654">[3.c] WRITE-REPLACE WARNING RESPONSE</text><path d="M5,306.4219 L5,322.4219 A5,5 0 0 0 10,327.4219 L584,327.4219 A5,5 0 0 0 589,322.4219 L589,311.4219 L579,301.4219 L10,301.4219 A5,5 0 0 0 5,306.4219 " fill="#FBFB77" style="stroke:#A80036;stroke-width:1.0;"/><path d="M579,301.4219 L579,308.9219 A2.5,2.5 0 0 0 581.5,311.4219 L589,311.4219 L579,301.4219 " fill="#FBFB77" style="stroke:#A80036;stroke-width:1.0;"/><text fill="#000000" font-family="sans-serif" font-size="13" lengthAdjust="spacing" textLength="276" x="154.75" y="319.917">Broadcast runs for 2 broadcast periods or more.</text><polygon fill="#A80036" points="158,351.125,168,355.125,158,359.125,162,355.125" style="stroke:#A80036;stroke-width:1.0;"/><line style="stroke:#A80036;stroke-width:1.0;" x1="56" x2="164" y1="355.125" y2="355.125"/><text fill="#000000" font-family="sans-serif" font-size="13" lengthAdjust="spacing" textLength="90" x="68" y="350.2686">[4] CAP Cancel</text><path d="M113.5,370.125 L181.5,370.125 L181.5,378.125 L171.5,388.125 L108.5,388.125 L108.5,375.125 A5,5 0 0 1 113.5,370.125 " fill="#EEEEEE" style="stroke:#A0A0FF;stroke-width:1.0;"/><rect fill="none" height="200.4609" rx="5" ry="5" style="stroke:#A0A0FF;stroke-width:2.0;" width="496" x="108.5" y="370.125"/><text fill="#000000" font-family="sans-serif" font-size="13" font-weight="bold" lengthAdjust="spacing" textLength="28" x="123.5" y="384.6201">loop</text><text fill="#000000" font-family="sans-serif" font-size="11" font-weight="bold" lengthAdjust="spacing" textLength="81" x="196.5" y="383.5439">[One per MME]</text><polygon fill="#A80036" points="528,406.8281,538,410.8281,528,414.8281,532,410.8281" style="stroke:#A80036;stroke-width:1.0;"/><line style="stroke:#A80036;stroke-width:1.0;" x1="170" x2="534" y1="410.8281" y2="410.8281"/><text fill="#000000" font-family="sans-serif" font-size="13" lengthAdjust="spacing" textLength="236" x="237" y="405.9717">[5.a] STOP WARNING REQUEST (local)</text><polygon fill="#A80036" points="528,437.1797,538,441.1797,528,445.1797,532,441.1797" style="stroke:#A80036;stroke-width:1.0;"/><line style="stroke:#A80036;stroke-width:1.0;" x1="170" x2="534" y1="441.1797" y2="441.1797"/><text fill="#000000" font-family="sans-serif" font-size="13" lengthAdjust="spacing" textLength="275" x="217.5" y="436.3232">[5.b] STOP WARNING REQUEST (additional 1)</text><polygon fill="#A80036" points="528,467.5313,538,471.5313,528,475.5313,532,471.5313" style="stroke:#A80036;stroke-width:1.0;"/><line style="stroke:#A80036;stroke-width:1.0;" x1="170" x2="534" y1="471.5313" y2="471.5313"/><text fill="#000000" font-family="sans-serif" font-size="13" lengthAdjust="spacing" textLength="275" x="217.5" y="466.6748">[5.c] STOP WARNING REQUEST (additional 2)</text><polygon fill="#A80036" points="181,497.8828,171,501.8828,181,505.8828,177,501.8828" style="stroke:#A80036;stroke-width:1.0;"/><line style="stroke:#A80036;stroke-width:1.0;" x1="175" x2="539" y1="501.8828" y2="501.8828"/><text fill="#000000" font-family="sans-serif" font-size="13" lengthAdjust="spacing" textLength="208" x="251" y="497.0264">[6.a] STOP WARNING RESPONSE</text><polygon fill="#A80036" points="181,528.2344,171,532.2344,181,536.2344,177,532.2344" style="stroke:#A80036;stroke-width:1.0;"/><line style="stroke:#A80036;stroke-width:1.0;" x1="175" x2="539" y1="532.2344" y2="532.2344"/><text fill="#000000" font-family="sans-serif" font-size="13" lengthAdjust="spacing" textLength="208" x="251" y="527.3779">[6.b] STOP WARNING RESPONSE</text><polygon fill="#A80036" points="181,558.5859,171,562.5859,181,566.5859,177,562.5859" style="stroke:#A80036;stroke-width:1.0;"/><line style="stroke:#A80036;stroke-width:1.0;" x1="175" x2="539" y1="562.5859" y2="562.5859"/><text fill="#000000" font-family="sans-serif" font-size="13" lengthAdjust="spacing" textLength="208" x="251" y="557.7295">[6.c] STOP WARNING RESPONSE</text><polygon fill="#A80036" points="67,595.9375,57,599.9375,67,603.9375,63,599.9375" style="stroke:#A80036;stroke-width:1.0;"/><line style="stroke:#A80036;stroke-width:1.0;stroke-dasharray:2.0,2.0;" x1="61" x2="169" y1="599.9375" y2="599.9375"/><text fill="#000000" font-family="sans-serif" font-size="13" lengthAdjust="spacing" textLength="52" x="87" y="595.0811">feedback</text><!--MD5=[109e35656ab5fbb4ad31bb5bce063026]
@startuml
hide footbox
skinparam Shadowing false
skinparam BackgroundColor #f2f2f2
skinparam SequenceGroupBodyBackgroundColor transparent
skinparam roundcorner 10
skinparam ParticipantPadding 30
skinparam BoxPadding 10
skinparam SequenceGroupBorderColor #a0a0ff
skinparam SequenceMessageAlign center

participant CBE as cbe
participant CBC as cbc
collections MME as mme

cbe -> cbc: [1] CAP Alert
loop One per MME
cbc -> mme: [2.a] WRITE-REPLACE WARNING REQUEST (local)
cbc -> mme: [2.b] WRITE-REPLACE WARNING REQUEST (additional 1)
cbc -> mme: [2.c] WRITE-REPLACE WARNING REQUEST (additional 2)
mme -> cbc: [3.a]] WRITE-REPLACE WARNING RESPONSE
mme -> cbc: [3.b] WRITE-REPLACE WARNING RESPONSE
mme -> cbc: [3.c] WRITE-REPLACE WARNING RESPONSE
end
note across: Broadcast runs for 2 broadcast periods or more.
cbe -> cbc: [4] CAP Cancel
loop One per MME
cbc -> mme: [5.a] STOP WARNING REQUEST (local)
cbc -> mme: [5.b] STOP WARNING REQUEST (additional 1)
cbc -> mme: [5.c] STOP WARNING REQUEST (additional 2)
mme -> cbc: [6.a] STOP WARNING RESPONSE
mme -> cbc: [6.b] STOP WARNING RESPONSE
mme -> cbc: [6.c] STOP WARNING RESPONSE
end
cbc - -> cbe: feedback

@enduml

PlantUML version 1.2022.0(Tue Jan 11 17:16:42 CET 2022)
(GPL source distribution)
Java Runtime: Java(TM) SE Runtime Environment
JVM: Java HotSpot(TM) Client VM
Default Encoding: Cp1252
Language: en
Country: GB
--></g></svg>