<?xml version="1.0" encoding="UTF-8" standalone="no"?><svg xmlns="http://www.w3.org/2000/svg" xmlns:xlink="http://www.w3.org/1999/xlink" contentScriptType="application/ecmascript" contentStyleType="text/css" height="477px" preserveAspectRatio="none" style="width:563px;height:477px;background:#F2F2F2;" version="1.1" viewBox="0 0 563 477" width="563px" zoomAndPan="magnify"><defs/><g><line style="stroke:#A80036;stroke-width:1.0;stroke-dasharray:5.0,5.0;" x1="56" x2="56" y1="37.6094" y2="470.5313"/><line style="stroke:#A80036;stroke-width:1.0;stroke-dasharray:5.0,5.0;" x1="168" x2="168" y1="37.6094" y2="470.5313"/><line style="stroke:#A80036;stroke-width:1.0;stroke-dasharray:5.0,5.0;" x1="469" x2="469" y1="37.6094" y2="470.5313"/><rect fill="#FEFECE" height="31.6094" rx="5" ry="5" style="stroke:#A80036;stroke-width:1.5;" width="42" x="35" y="5"/><text fill="#000000" font-family="sans-serif" font-size="14" lengthAdjust="spacing" textLength="28" x="42" y="26.5332">CBE</text><rect fill="#FEFECE" height="31.6094" rx="5" ry="5" style="stroke:#A80036;stroke-width:1.5;" width="43" x="147" y="5"/><text fill="#000000" font-family="sans-serif" font-size="14" lengthAdjust="spacing" textLength="29" x="154" y="26.5332">CBC</text><rect fill="#FEFECE" height="31.6094" rx="5" ry="5" style="stroke:#A80036;stroke-width:1.5;" width="45" x="447" y="5"/><text fill="#000000" font-family="sans-serif" font-size="14" lengthAdjust="spacing" textLength="31" x="454" y="26.5332">MME</text><polygon fill="#A80036" points="156.5,65.9609,166.5,69.9609,156.5,73.9609,160.5,69.9609" style="stroke:#A80036;stroke-width:1.0;"/><line style="stroke:#A80036;stroke-width:1.0;" x1="56" x2="162.5" y1="69.9609" y2="69.9609"/><text fill="#000000" font-family="sans-serif" font-size="13" lengthAdjust="spacing" textLength="77" x="73.75" y="65.1045">[1] CAP Alert</text><polygon fill="#A80036" points="457.5,96.3125,467.5,100.3125,457.5,104.3125,461.5,100.3125" style="stroke:#A80036;stroke-width:1.0;"/><line style="stroke:#A80036;stroke-width:1.0;" x1="168.5" x2="463.5" y1="100.3125" y2="100.3125"/><text fill="#000000" font-family="sans-serif" font-size="13" lengthAdjust="spacing" textLength="257" x="190.5" y="95.4561">[2] WRITE-REPLACE WARNING REQUEST</text><polygon fill="#A80036" points="179.5,126.6641,169.5,130.6641,179.5,134.6641,175.5,130.6641" style="stroke:#A80036;stroke-width:1.0;"/><line style="stroke:#A80036;stroke-width:1.0;" x1="173.5" x2="468.5" y1="130.6641" y2="130.6641"/><text fill="#000000" font-family="sans-serif" font-size="13" lengthAdjust="spacing" textLength="268" x="185" y="125.8076">[3] WRITE-REPLACE WARNING RESPONSE</text><path d="M102,145.6641 L382,145.6641 L382,153.6641 L372,163.6641 L97,163.6641 L97,150.6641 A5,5 0 0 1 102,145.6641 " fill="#EEEEEE" style="stroke:#A0A0FF;stroke-width:1.0;"/><rect fill="none" height="131.7578" rx="5" ry="5" style="stroke:#A0A0FF;stroke-width:2.0;" width="460" x="97" y="145.6641"/><text fill="#000000" font-family="sans-serif" font-size="13" font-weight="bold" lengthAdjust="spacing" textLength="240" x="112" y="160.1592">Option 1 - Indications enabled in MME</text><path d="M112,171.0156 L232,171.0156 L232,179.0156 L222,189.0156 L107,189.0156 L107,176.0156 A5,5 0 0 1 112,171.0156 " fill="#EEEEEE" style="stroke:#A0A0FF;stroke-width:1.0;"/><rect fill="none" height="99.4063" rx="5" ry="5" style="stroke:#A0A0FF;stroke-width:2.0;" width="440" x="107" y="171.0156"/><text fill="#000000" font-family="sans-serif" font-size="13" font-weight="bold" lengthAdjust="spacing" textLength="80" x="122" y="185.5107">One or more</text><rect fill="#FBFB77" height="40" rx="5" ry="5" style="stroke:#A80036;stroke-width:1.0;" width="135" x="402" y="194.3672"/><text fill="#000000" font-family="sans-serif" font-size="13" lengthAdjust="spacing" textLength="93" x="406" y="211.8623">Receiving failure</text><text fill="#000000" font-family="sans-serif" font-size="13" lengthAdjust="spacing" textLength="127" x="406" y="228.2139">indications from eNBs</text><polygon fill="#A80036" points="179.5,258.4219,169.5,262.4219,179.5,266.4219,175.5,262.4219" style="stroke:#A80036;stroke-width:1.0;"/><line style="stroke:#A80036;stroke-width:1.0;" x1="173.5" x2="468.5" y1="262.4219" y2="262.4219"/><text fill="#000000" font-family="sans-serif" font-size="13" lengthAdjust="spacing" textLength="277" x="180.5" y="257.5654">[4.a] WRITE-REPLACE WARNING INDICATION</text><path d="M102,291.4219 L384,291.4219 L384,299.4219 L374,309.4219 L97,309.4219 L97,296.4219 A5,5 0 0 1 102,291.4219 " fill="#EEEEEE" style="stroke:#A0A0FF;stroke-width:1.0;"/><rect fill="none" height="131.7578" rx="5" ry="5" style="stroke:#A0A0FF;stroke-width:2.0;" width="460" x="97" y="291.4219"/><text fill="#000000" font-family="sans-serif" font-size="13" font-weight="bold" lengthAdjust="spacing" textLength="242" x="112" y="305.917">Option 2 - Indications disabled in MME</text><path d="M112,316.7734 L232,316.7734 L232,324.7734 L222,334.7734 L107,334.7734 L107,321.7734 A5,5 0 0 1 112,316.7734 " fill="#EEEEEE" style="stroke:#A0A0FF;stroke-width:1.0;"/><rect fill="none" height="99.4063" rx="5" ry="5" style="stroke:#A0A0FF;stroke-width:2.0;" width="440" x="107" y="316.7734"/><text fill="#000000" font-family="sans-serif" font-size="13" font-weight="bold" lengthAdjust="spacing" textLength="80" x="122" y="331.2686">One or more</text><rect fill="#FBFB77" height="40" rx="5" ry="5" style="stroke:#A80036;stroke-width:1.0;" width="135" x="402" y="340.125"/><text fill="#000000" font-family="sans-serif" font-size="13" lengthAdjust="spacing" textLength="93" x="406" y="357.6201">Receiving failure</text><text fill="#000000" font-family="sans-serif" font-size="13" lengthAdjust="spacing" textLength="127" x="406" y="373.9717">indications from eNBs</text><polygon fill="#A80036" points="179.5,404.1797,169.5,408.1797,179.5,412.1797,175.5,408.1797" style="stroke:#A80036;stroke-width:1.0;"/><line style="stroke:#A80036;stroke-width:1.0;" x1="173.5" x2="468.5" y1="408.1797" y2="408.1797"/><text fill="#000000" font-family="sans-serif" font-size="13" lengthAdjust="spacing" textLength="194" x="222" y="403.3232">[4.b] PWS FAILURE INDICATION</text><polygon fill="#A80036" points="67,448.5313,57,452.5313,67,456.5313,63,452.5313" style="stroke:#A80036;stroke-width:1.0;"/><line style="stroke:#A80036;stroke-width:1.0;stroke-dasharray:2.0,2.0;" x1="61" x2="167.5" y1="452.5313" y2="452.5313"/><text fill="#000000" font-family="sans-serif" font-size="13" lengthAdjust="spacing" textLength="57" x="83.75" y="447.6748">Feedback</text><!--MD5=[5f5890b8e14f1dd28e3501a1b9a00a6d]
@startuml
hide footbox
skinparam Shadowing false
skinparam BackgroundColor #f2f2f2
skinparam SequenceGroupBodyBackgroundColor transparent
skinparam roundcorner 10
skinparam ParticipantPadding 30
skinparam BoxPadding 10
skinparam SequenceGroupBorderColor #a0a0ff
skinparam SequenceMessageAlign center

participant CBE as cbe
participant CBC as cbc
participant MME as mme

cbe -> cbc: [1] CAP Alert
cbc -> mme: [2] WRITE-REPLACE WARNING REQUEST
mme -> cbc: [3] WRITE-REPLACE WARNING RESPONSE

group Option 1 - Indications enabled in MME
    group One or more
        rnote over mme
            Receiving failure 
            indications from eNBs
        endrnote
        mme -> cbc: [4.a] WRITE-REPLACE WARNING INDICATION
    end
end

group Option 2 - Indications disabled in MME
    group One or more
        rnote over mme
            Receiving failure 
            indications from eNBs
        endrnote
        mme -> cbc: [4.b] PWS FAILURE INDICATION
    end
end

cbc - -> cbe: Feedback
@enduml

PlantUML version 1.2022.0(Tue Jan 11 17:16:42 CET 2022)
(GPL source distribution)
Java Runtime: Java(TM) SE Runtime Environment
JVM: Java HotSpot(TM) Client VM
Default Encoding: Cp1252
Language: en
Country: GB
--></g></svg>