<?xml version="1.0" encoding="UTF-8" standalone="no"?><svg xmlns="http://www.w3.org/2000/svg" xmlns:xlink="http://www.w3.org/1999/xlink" contentScriptType="application/ecmascript" contentStyleType="text/css" height="667px" preserveAspectRatio="none" style="width:565px;height:667px;background:#F2F2F2;" version="1.1" viewBox="0 0 565 667" width="565px" zoomAndPan="magnify"><defs/><g><line style="stroke:#A80036;stroke-width:1.0;stroke-dasharray:5.0,5.0;" x1="71" x2="71" y1="37.6094" y2="660.2891"/><line style="stroke:#A80036;stroke-width:1.0;stroke-dasharray:5.0,5.0;" x1="183" x2="183" y1="37.6094" y2="660.2891"/><line style="stroke:#A80036;stroke-width:1.0;stroke-dasharray:5.0,5.0;" x1="486" x2="486" y1="37.6094" y2="660.2891"/><rect fill="#FEFECE" height="31.6094" rx="5" ry="5" style="stroke:#A80036;stroke-width:1.5;" width="42" x="50" y="5"/><text fill="#000000" font-family="sans-serif" font-size="14" lengthAdjust="spacing" textLength="28" x="57" y="26.5332">CBE</text><rect fill="#FEFECE" height="31.6094" rx="5" ry="5" style="stroke:#A80036;stroke-width:1.5;" width="43" x="162" y="5"/><text fill="#000000" font-family="sans-serif" font-size="14" lengthAdjust="spacing" textLength="29" x="169" y="26.5332">CBC</text><rect fill="#FEFECE" height="31.6094" rx="5" ry="5" style="stroke:#A80036;stroke-width:1.5;" width="45" x="464" y="5"/><text fill="#000000" font-family="sans-serif" font-size="14" lengthAdjust="spacing" textLength="31" x="471" y="26.5332">MME</text><path d="M15,54.6094 L118,54.6094 L118,62.6094 L108,72.6094 L10,72.6094 L10,59.6094 A5,5 0 0 1 15,54.6094 " fill="#EEEEEE" style="stroke:#A0A0FF;stroke-width:1.0;"/><rect fill="none" height="109.4063" rx="5" ry="5" style="stroke:#A0A0FF;stroke-width:2.0;" width="539" x="10" y="54.6094"/><text fill="#000000" font-family="sans-serif" font-size="13" font-weight="bold" lengthAdjust="spacing" textLength="63" x="25" y="69.1045">Start alert</text><polygon fill="#A80036" points="171.5,91.3125,181.5,95.3125,171.5,99.3125,175.5,95.3125" style="stroke:#A80036;stroke-width:1.0;"/><line style="stroke:#A80036;stroke-width:1.0;" x1="71" x2="177.5" y1="95.3125" y2="95.3125"/><text fill="#000000" font-family="sans-serif" font-size="13" lengthAdjust="spacing" textLength="77" x="88.75" y="90.4561">[1] CAP Alert</text><polygon fill="#A80036" points="474.5,121.6641,484.5,125.6641,474.5,129.6641,478.5,125.6641" style="stroke:#A80036;stroke-width:1.0;"/><line style="stroke:#A80036;stroke-width:1.0;" x1="183.5" x2="480.5" y1="125.6641" y2="125.6641"/><text fill="#000000" font-family="sans-serif" font-size="13" lengthAdjust="spacing" textLength="257" x="206.5" y="120.8076">[2] WRITE-REPLACE WARNING REQUEST</text><polygon fill="#A80036" points="194.5,152.0156,184.5,156.0156,194.5,160.0156,190.5,156.0156" style="stroke:#A80036;stroke-width:1.0;"/><line style="stroke:#A80036;stroke-width:1.0;" x1="188.5" x2="485.5" y1="156.0156" y2="156.0156"/><text fill="#000000" font-family="sans-serif" font-size="13" lengthAdjust="spacing" textLength="268" x="201" y="151.1592">[3] WRITE-REPLACE WARNING RESPONSE</text><path d="M21,181.0156 L21,197.0156 A5,5 0 0 0 26,202.0156 L530,202.0156 A5,5 0 0 0 535,197.0156 L535,186.0156 L525,176.0156 L26,176.0156 A5,5 0 0 0 21,181.0156 " fill="#FBFB77" style="stroke:#A80036;stroke-width:1.0;"/><path d="M525,176.0156 L525,183.5156 A2.5,2.5 0 0 0 527.5,186.0156 L535,186.0156 L525,176.0156 " fill="#FBFB77" style="stroke:#A80036;stroke-width:1.0;"/><text fill="#000000" font-family="sans-serif" font-size="13" lengthAdjust="spacing" textLength="269" x="139" y="194.5107">Broadcast runs for 1 broadcast period or more.</text><path d="M15,214.3672 L133,214.3672 L133,222.3672 L123,232.3672 L10,232.3672 L10,219.3672 A5,5 0 0 1 15,214.3672 " fill="#EEEEEE" style="stroke:#A0A0FF;stroke-width:1.0;"/><rect fill="none" height="398.5703" rx="5" ry="5" style="stroke:#A0A0FF;stroke-width:2.0;" width="549" x="10" y="214.3672"/><text fill="#000000" font-family="sans-serif" font-size="13" font-weight="bold" lengthAdjust="spacing" textLength="78" x="25" y="228.8623">Update alert</text><polygon fill="#A80036" points="171.5,251.0703,181.5,255.0703,171.5,259.0703,175.5,255.0703" style="stroke:#A80036;stroke-width:1.0;"/><line style="stroke:#A80036;stroke-width:1.0;" x1="71" x2="177.5" y1="255.0703" y2="255.0703"/><text fill="#000000" font-family="sans-serif" font-size="13" lengthAdjust="spacing" textLength="77" x="88.75" y="250.2139">[4] CAP Alert</text><path d="M127,270.0703 L220,270.0703 L220,278.0703 L210,288.0703 L122,288.0703 L122,275.0703 A5,5 0 0 1 127,270.0703 " fill="#EEEEEE" style="stroke:#A0A0FF;stroke-width:1.0;"/><rect fill="none" height="113.4063" rx="5" ry="5" style="stroke:#A0A0FF;stroke-width:2.0;" width="427" x="122" y="270.0703"/><text fill="#000000" font-family="sans-serif" font-size="13" font-weight="bold" lengthAdjust="spacing" textLength="53" x="137" y="284.5654">Option 1</text><polygon fill="#A80036" points="474.5,306.7734,484.5,310.7734,474.5,314.7734,478.5,310.7734" style="stroke:#A80036;stroke-width:1.0;"/><line style="stroke:#A80036;stroke-width:1.0;" x1="183.5" x2="480.5" y1="310.7734" y2="310.7734"/><text fill="#000000" font-family="sans-serif" font-size="13" lengthAdjust="spacing" textLength="268" x="201" y="305.917">[5.a] WRITE-REPLACE WARNING REQUEST</text><polygon fill="#A80036" points="194.5,337.125,184.5,341.125,194.5,345.125,190.5,341.125" style="stroke:#A80036;stroke-width:1.0;"/><line style="stroke:#A80036;stroke-width:1.0;" x1="188.5" x2="485.5" y1="341.125" y2="341.125"/><text fill="#000000" font-family="sans-serif" font-size="13" lengthAdjust="spacing" textLength="279" x="195.5" y="336.2686">[6.a] WRITE-REPLACE WARNING RESPONSE</text><rect fill="#FBFB77" height="24" rx="5" ry="5" style="stroke:#A80036;stroke-width:1.0;" width="402" x="134" y="354.125"/><text fill="#000000" font-family="sans-serif" font-size="13" lengthAdjust="spacing" textLength="187" x="241.5" y="371.6201">Broadcasting updated message.</text><path d="M127,397.4766 L220,397.4766 L220,405.4766 L210,415.4766 L122,415.4766 L122,402.4766 A5,5 0 0 1 127,397.4766 " fill="#EEEEEE" style="stroke:#A0A0FF;stroke-width:1.0;"/><rect fill="none" height="208.4609" rx="5" ry="5" style="stroke:#A0A0FF;stroke-width:2.0;" width="427" x="122" y="397.4766"/><text fill="#000000" font-family="sans-serif" font-size="13" font-weight="bold" lengthAdjust="spacing" textLength="53" x="137" y="411.9717">Option 2</text><polygon fill="#A80036" points="474.5,434.1797,484.5,438.1797,474.5,442.1797,478.5,438.1797" style="stroke:#A80036;stroke-width:1.0;"/><line style="stroke:#A80036;stroke-width:1.0;" x1="183.5" x2="480.5" y1="438.1797" y2="438.1797"/><text fill="#000000" font-family="sans-serif" font-size="13" lengthAdjust="spacing" textLength="197" x="236.5" y="433.3232">[5.b] STOP WARNING REQUEST</text><polygon fill="#A80036" points="194.5,464.5313,184.5,468.5313,194.5,472.5313,190.5,468.5313" style="stroke:#A80036;stroke-width:1.0;"/><line style="stroke:#A80036;stroke-width:1.0;" x1="188.5" x2="485.5" y1="468.5313" y2="468.5313"/><text fill="#000000" font-family="sans-serif" font-size="13" lengthAdjust="spacing" textLength="208" x="231" y="463.6748">[6.b] STOP WARNING RESPONSE</text><rect fill="#FBFB77" height="24" rx="5" ry="5" style="stroke:#A80036;stroke-width:1.0;" width="402" x="134" y="481.5313"/><text fill="#000000" font-family="sans-serif" font-size="13" lengthAdjust="spacing" textLength="168" x="251" y="499.0264">Original broadcast cancelled.</text><polygon fill="#A80036" points="474.5,529.2344,484.5,533.2344,474.5,537.2344,478.5,533.2344" style="stroke:#A80036;stroke-width:1.0;"/><line style="stroke:#A80036;stroke-width:1.0;" x1="183.5" x2="480.5" y1="533.2344" y2="533.2344"/><text fill="#000000" font-family="sans-serif" font-size="13" lengthAdjust="spacing" textLength="268" x="201" y="528.3779">[7.b] WRITE-REPLACE WARNING REQUEST</text><polygon fill="#A80036" points="194.5,559.5859,184.5,563.5859,194.5,567.5859,190.5,563.5859" style="stroke:#A80036;stroke-width:1.0;"/><line style="stroke:#A80036;stroke-width:1.0;" x1="188.5" x2="485.5" y1="563.5859" y2="563.5859"/><text fill="#000000" font-family="sans-serif" font-size="13" lengthAdjust="spacing" textLength="279" x="195.5" y="558.7295">[8.b] WRITE-REPLACE WARNING RESPONSE</text><rect fill="#FBFB77" height="24" rx="5" ry="5" style="stroke:#A80036;stroke-width:1.0;" width="402" x="134" y="576.5859"/><text fill="#000000" font-family="sans-serif" font-size="13" lengthAdjust="spacing" textLength="145" x="262.5" y="594.0811">New broadcast activated.</text><polygon fill="#A80036" points="82,638.2891,72,642.2891,82,646.2891,78,642.2891" style="stroke:#A80036;stroke-width:1.0;"/><line style="stroke:#A80036;stroke-width:1.0;stroke-dasharray:2.0,2.0;" x1="76" x2="182.5" y1="642.2891" y2="642.2891"/><text fill="#000000" font-family="sans-serif" font-size="13" lengthAdjust="spacing" textLength="52" x="101.25" y="637.4326">feedback</text><!--MD5=[10ad37e531df8f788c792d288272f42d]
@startuml
hide footbox
skinparam Shadowing false
skinparam BackgroundColor #f2f2f2
skinparam SequenceGroupBodyBackgroundColor transparent
skinparam roundcorner 10
skinparam ParticipantPadding 30
skinparam BoxPadding 10
skinparam SequenceGroupBorderColor #a0a0ff
skinparam SequenceMessageAlign center

participant CBE as cbe
participant CBC as cbc
participant MME as mme

group Start alert
    cbe -> cbc: [1] CAP Alert
    cbc -> mme: [2] WRITE-REPLACE WARNING REQUEST
    mme -> cbc: [3] WRITE-REPLACE WARNING RESPONSE
end
note across: Broadcast runs for 1 broadcast period or more.
group Update alert
    cbe -> cbc: [4] CAP Alert
    group Option 1
        cbc -> mme: [5.a] WRITE-REPLACE WARNING REQUEST
        mme -> cbc: [6.a] WRITE-REPLACE WARNING RESPONSE
        rnote over cbc, mme
            Broadcasting updated message.
        endrnote
    end
    group Option 2
        cbc -> mme: [5.b] STOP WARNING REQUEST
        mme -> cbc: [6.b] STOP WARNING RESPONSE
        rnote over cbc, mme
            Original broadcast cancelled.
        endrnote
        cbc -> mme: [7.b] WRITE-REPLACE WARNING REQUEST
        mme -> cbc: [8.b] WRITE-REPLACE WARNING RESPONSE
        rnote over cbc, mme
            New broadcast activated.
        endrnote
    end
end
cbc - -> cbe: feedback
@enduml

PlantUML version 1.2022.0(Tue Jan 11 17:16:42 CET 2022)
(GPL source distribution)
Java Runtime: Java(TM) SE Runtime Environment
JVM: Java HotSpot(TM) Client VM
Default Encoding: Cp1252
Language: en
Country: GB
--></g></svg>