<?xml version="1.0" encoding="UTF-8" standalone="no"?><svg xmlns="http://www.w3.org/2000/svg" xmlns:xlink="http://www.w3.org/1999/xlink" contentScriptType="application/ecmascript" contentStyleType="text/css" height="1462px" preserveAspectRatio="none" style="width:605px;height:1462px;background:#F2F2F2;" version="1.1" viewBox="0 0 605 1462" width="605px" zoomAndPan="magnify"><defs/><g><line style="stroke:#A80036;stroke-width:1.0;stroke-dasharray:5.0,5.0;" x1="71" x2="71" y1="41.6094" y2="1455.7813"/><line style="stroke:#A80036;stroke-width:1.0;stroke-dasharray:5.0,5.0;" x1="183" x2="183" y1="41.6094" y2="1455.7813"/><line style="stroke:#A80036;stroke-width:1.0;stroke-dasharray:5.0,5.0;" x1="493" x2="493" y1="41.6094" y2="1455.7813"/><rect fill="#FEFECE" height="31.6094" rx="5" ry="5" style="stroke:#A80036;stroke-width:1.5;" width="42" x="50" y="9"/><text fill="#000000" font-family="sans-serif" font-size="14" lengthAdjust="spacing" textLength="28" x="57" y="30.5332">CBE</text><rect fill="#FEFECE" height="31.6094" rx="5" ry="5" style="stroke:#A80036;stroke-width:1.5;" width="43" x="162" y="9"/><text fill="#000000" font-family="sans-serif" font-size="14" lengthAdjust="spacing" textLength="29" x="169" y="30.5332">CBC</text><rect fill="#FEFECE" height="31.6094" rx="5" ry="5" style="stroke:#A80036;stroke-width:1.5;" width="45" x="473" y="5"/><rect fill="#FEFECE" height="31.6094" rx="5" ry="5" style="stroke:#A80036;stroke-width:1.5;" width="45" x="469" y="9"/><text fill="#000000" font-family="sans-serif" font-size="14" lengthAdjust="spacing" textLength="31" x="476" y="30.5332">MME</text><path d="M15,58.6094 L118,58.6094 L118,66.6094 L108,76.6094 L10,76.6094 L10,63.6094 A5,5 0 0 1 15,58.6094 " fill="#EEEEEE" style="stroke:#A0A0FF;stroke-width:1.0;"/><rect fill="none" height="222.8125" rx="5" ry="5" style="stroke:#A0A0FF;stroke-width:2.0;" width="569" x="10" y="58.6094"/><text fill="#000000" font-family="sans-serif" font-size="13" font-weight="bold" lengthAdjust="spacing" textLength="63" x="25" y="73.1045">Start alert</text><polygon fill="#A80036" points="171.5,95.3125,181.5,99.3125,171.5,103.3125,175.5,99.3125" style="stroke:#A80036;stroke-width:1.0;"/><line style="stroke:#A80036;stroke-width:1.0;" x1="71" x2="177.5" y1="99.3125" y2="99.3125"/><text fill="#000000" font-family="sans-serif" font-size="13" lengthAdjust="spacing" textLength="77" x="88.75" y="94.4561">[1] CAP Alert</text><polygon fill="#A80036" points="481.5,125.6641,491.5,129.6641,481.5,133.6641,485.5,129.6641" style="stroke:#A80036;stroke-width:1.0;"/><line style="stroke:#A80036;stroke-width:1.0;" x1="183.5" x2="487.5" y1="129.6641" y2="129.6641"/><text fill="#000000" font-family="sans-serif" font-size="13" lengthAdjust="spacing" textLength="257" x="210" y="124.8076">[2] WRITE-REPLACE WARNING REQUEST</text><polygon fill="#A80036" points="194.5,156.0156,184.5,160.0156,194.5,164.0156,190.5,160.0156" style="stroke:#A80036;stroke-width:1.0;"/><line style="stroke:#A80036;stroke-width:1.0;" x1="188.5" x2="492.5" y1="160.0156" y2="160.0156"/><text fill="#000000" font-family="sans-serif" font-size="13" lengthAdjust="spacing" textLength="268" x="204.5" y="155.1592">[3] WRITE-REPLACE WARNING RESPONSE</text><path d="M127,175.0156 L306,175.0156 L306,183.0156 L296,193.0156 L122,193.0156 L122,180.0156 A5,5 0 0 1 127,175.0156 " fill="#EEEEEE" style="stroke:#A0A0FF;stroke-width:1.0;"/><rect fill="none" height="99.4063" rx="5" ry="5" style="stroke:#A0A0FF;stroke-width:2.0;" width="447" x="122" y="175.0156"/><text fill="#000000" font-family="sans-serif" font-size="13" font-weight="bold" lengthAdjust="spacing" textLength="139" x="137" y="189.5107">One or more per MME</text><rect fill="#FBFB77" height="40" rx="5" ry="5" style="stroke:#A80036;stroke-width:1.0;" width="131" x="428" y="198.3672"/><text fill="#000000" font-family="sans-serif" font-size="13" lengthAdjust="spacing" textLength="119" x="432" y="215.8623">Receiving responses</text><text fill="#000000" font-family="sans-serif" font-size="13" lengthAdjust="spacing" textLength="61" x="432" y="232.2139">from eNBs</text><polygon fill="#A80036" points="194.5,262.4219,184.5,266.4219,194.5,270.4219,190.5,266.4219" style="stroke:#A80036;stroke-width:1.0;"/><line style="stroke:#A80036;stroke-width:1.0;" x1="188.5" x2="492.5" y1="266.4219" y2="266.4219"/><text fill="#000000" font-family="sans-serif" font-size="13" lengthAdjust="spacing" textLength="266" x="205.5" y="261.5654">[4] WRITE-REPLACE WARNING INDICATION</text><path d="M20,298.4219 L20,314.4219 A5,5 0 0 0 25,319.4219 L538,319.4219 A5,5 0 0 0 543,314.4219 L543,303.4219 L533,293.4219 L25,293.4219 A5,5 0 0 0 20,298.4219 " fill="#FBFB77" style="stroke:#A80036;stroke-width:1.0;"/><path d="M533,293.4219 L533,300.9219 A2.5,2.5 0 0 0 535.5,303.4219 L543,303.4219 L533,293.4219 " fill="#FBFB77" style="stroke:#A80036;stroke-width:1.0;"/><text fill="#000000" font-family="sans-serif" font-size="13" lengthAdjust="spacing" textLength="269" x="142.5" y="311.917">Broadcast runs for 1 broadcast period or more.</text><path d="M15,331.7734 L166,331.7734 L166,339.7734 L156,349.7734 L10,349.7734 L10,336.7734 A5,5 0 0 1 15,331.7734 " fill="#EEEEEE" style="stroke:#A0A0FF;stroke-width:1.0;"/><rect fill="none" height="1076.6563" rx="5" ry="5" style="stroke:#A0A0FF;stroke-width:2.0;" width="589" x="10" y="331.7734"/><text fill="#000000" font-family="sans-serif" font-size="13" font-weight="bold" lengthAdjust="spacing" textLength="111" x="25" y="346.2686">Update alert area</text><polygon fill="#A80036" points="171.5,368.4766,181.5,372.4766,171.5,376.4766,175.5,372.4766" style="stroke:#A80036;stroke-width:1.0;"/><line style="stroke:#A80036;stroke-width:1.0;" x1="71" x2="177.5" y1="372.4766" y2="372.4766"/><text fill="#000000" font-family="sans-serif" font-size="13" lengthAdjust="spacing" textLength="77" x="88.75" y="367.6201">[5] CAP Alert</text><path d="M107,387.4766 L200,387.4766 L200,395.4766 L190,405.4766 L102,405.4766 L102,392.4766 A5,5 0 0 1 107,387.4766 " fill="#EEEEEE" style="stroke:#A0A0FF;stroke-width:1.0;"/><rect fill="none" height="499.9766" rx="5" ry="5" style="stroke:#A0A0FF;stroke-width:2.0;" width="487" x="102" y="387.4766"/><text fill="#000000" font-family="sans-serif" font-size="13" font-weight="bold" lengthAdjust="spacing" textLength="53" x="117" y="401.9717">Option 1</text><path d="M117,412.8281 L326,412.8281 L326,420.8281 L316,430.8281 L112,430.8281 L112,417.8281 A5,5 0 0 1 117,412.8281 " fill="#EEEEEE" style="stroke:#A0A0FF;stroke-width:1.0;"/><rect fill="none" height="226.8125" rx="5" ry="5" style="stroke:#A0A0FF;stroke-width:2.0;" width="467" x="112" y="412.8281"/><text fill="#000000" font-family="sans-serif" font-size="13" font-weight="bold" lengthAdjust="spacing" textLength="169" x="127" y="427.3232">Stop broadcast completely</text><polygon fill="#A80036" points="481.5,449.5313,491.5,453.5313,481.5,457.5313,485.5,453.5313" style="stroke:#A80036;stroke-width:1.0;"/><line style="stroke:#A80036;stroke-width:1.0;" x1="183.5" x2="487.5" y1="453.5313" y2="453.5313"/><text fill="#000000" font-family="sans-serif" font-size="13" lengthAdjust="spacing" textLength="197" x="240" y="448.6748">[6.a] STOP WARNING REQUEST</text><polygon fill="#A80036" points="194.5,479.8828,184.5,483.8828,194.5,487.8828,190.5,483.8828" style="stroke:#A80036;stroke-width:1.0;"/><line style="stroke:#A80036;stroke-width:1.0;" x1="188.5" x2="492.5" y1="483.8828" y2="483.8828"/><text fill="#000000" font-family="sans-serif" font-size="13" lengthAdjust="spacing" textLength="208" x="234.5" y="479.0264">[7.a] STOP WARNING RESPONSE</text><path d="M127,498.8828 L306,498.8828 L306,506.8828 L296,516.8828 L122,516.8828 L122,503.8828 A5,5 0 0 1 127,498.8828 " fill="#EEEEEE" style="stroke:#A0A0FF;stroke-width:1.0;"/><rect fill="none" height="99.4063" rx="5" ry="5" style="stroke:#A0A0FF;stroke-width:2.0;" width="447" x="122" y="498.8828"/><text fill="#000000" font-family="sans-serif" font-size="13" font-weight="bold" lengthAdjust="spacing" textLength="139" x="137" y="513.3779">One or more per MME</text><rect fill="#FBFB77" height="40" rx="5" ry="5" style="stroke:#A80036;stroke-width:1.0;" width="131" x="428" y="522.2344"/><text fill="#000000" font-family="sans-serif" font-size="13" lengthAdjust="spacing" textLength="119" x="432" y="539.7295">Receiving responses</text><text fill="#000000" font-family="sans-serif" font-size="13" lengthAdjust="spacing" textLength="61" x="432" y="556.0811">from eNBs</text><polygon fill="#A80036" points="194.5,586.2891,184.5,590.2891,194.5,594.2891,190.5,590.2891" style="stroke:#A80036;stroke-width:1.0;"/><line style="stroke:#A80036;stroke-width:1.0;" x1="188.5" x2="492.5" y1="590.2891" y2="590.2891"/><text fill="#000000" font-family="sans-serif" font-size="13" lengthAdjust="spacing" textLength="206" x="235.5" y="585.4326">[8.a] STOP WARNING INDICATION</text><rect fill="#FBFB77" height="24" rx="5" ry="5" style="stroke:#A80036;stroke-width:1.0;" width="411" x="133" y="610.2891"/><text fill="#000000" font-family="sans-serif" font-size="13" lengthAdjust="spacing" textLength="180" x="248.5" y="627.7842">Broadcast stopped completely.</text><path d="M117,653.6406 L351,653.6406 L351,661.6406 L341,671.6406 L112,671.6406 L112,658.6406 A5,5 0 0 1 117,653.6406 " fill="#EEEEEE" style="stroke:#A0A0FF;stroke-width:1.0;"/><rect fill="none" height="226.8125" rx="5" ry="5" style="stroke:#A0A0FF;stroke-width:2.0;" width="467" x="112" y="653.6406"/><text fill="#000000" font-family="sans-serif" font-size="13" font-weight="bold" lengthAdjust="spacing" textLength="194" x="127" y="668.1357">Re-start broadcast in new area</text><polygon fill="#A80036" points="481.5,690.3438,491.5,694.3438,481.5,698.3438,485.5,694.3438" style="stroke:#A80036;stroke-width:1.0;"/><line style="stroke:#A80036;stroke-width:1.0;" x1="183.5" x2="487.5" y1="694.3438" y2="694.3438"/><text fill="#000000" font-family="sans-serif" font-size="13" lengthAdjust="spacing" textLength="268" x="204.5" y="689.4873">[9.a] WRITE-REPLACE WARNING REQUEST</text><polygon fill="#A80036" points="194.5,720.6953,184.5,724.6953,194.5,728.6953,190.5,724.6953" style="stroke:#A80036;stroke-width:1.0;"/><line style="stroke:#A80036;stroke-width:1.0;" x1="188.5" x2="492.5" y1="724.6953" y2="724.6953"/><text fill="#000000" font-family="sans-serif" font-size="13" lengthAdjust="spacing" textLength="286" x="195.5" y="719.8389">[10.a] WRITE-REPLACE WARNING RESPONSE</text><path d="M127,739.6953 L306,739.6953 L306,747.6953 L296,757.6953 L122,757.6953 L122,744.6953 A5,5 0 0 1 127,739.6953 " fill="#EEEEEE" style="stroke:#A0A0FF;stroke-width:1.0;"/><rect fill="none" height="99.4063" rx="5" ry="5" style="stroke:#A0A0FF;stroke-width:2.0;" width="447" x="122" y="739.6953"/><text fill="#000000" font-family="sans-serif" font-size="13" font-weight="bold" lengthAdjust="spacing" textLength="139" x="137" y="754.1904">One or more per MME</text><rect fill="#FBFB77" height="40" rx="5" ry="5" style="stroke:#A80036;stroke-width:1.0;" width="131" x="428" y="763.0469"/><text fill="#000000" font-family="sans-serif" font-size="13" lengthAdjust="spacing" textLength="119" x="432" y="780.542">Receiving responses</text><text fill="#000000" font-family="sans-serif" font-size="13" lengthAdjust="spacing" textLength="61" x="432" y="796.8936">from eNBs</text><polygon fill="#A80036" points="194.5,827.1016,184.5,831.1016,194.5,835.1016,190.5,831.1016" style="stroke:#A80036;stroke-width:1.0;"/><line style="stroke:#A80036;stroke-width:1.0;" x1="188.5" x2="492.5" y1="831.1016" y2="831.1016"/><text fill="#000000" font-family="sans-serif" font-size="13" lengthAdjust="spacing" textLength="284" x="196.5" y="826.2451">[11.a] WRITE-REPLACE WARNING INDICATION</text><rect fill="#FBFB77" height="24" rx="5" ry="5" style="stroke:#A80036;stroke-width:1.0;" width="411" x="133" y="851.1016"/><text fill="#000000" font-family="sans-serif" font-size="13" lengthAdjust="spacing" textLength="192" x="242.5" y="868.5967">Broadcast re-started in new area.</text><path d="M107,901.4531 L200,901.4531 L200,909.4531 L190,919.4531 L102,919.4531 L102,906.4531 A5,5 0 0 1 107,901.4531 " fill="#EEEEEE" style="stroke:#A0A0FF;stroke-width:1.0;"/><rect fill="none" height="499.9766" rx="5" ry="5" style="stroke:#A0A0FF;stroke-width:2.0;" width="487" x="102" y="901.4531"/><text fill="#000000" font-family="sans-serif" font-size="13" font-weight="bold" lengthAdjust="spacing" textLength="53" x="117" y="915.9482">Option 2</text><path d="M117,926.8047 L249,926.8047 L249,934.8047 L239,944.8047 L112,944.8047 L112,931.8047 A5,5 0 0 1 117,926.8047 " fill="#EEEEEE" style="stroke:#A0A0FF;stroke-width:1.0;"/><rect fill="none" height="226.8125" rx="5" ry="5" style="stroke:#A0A0FF;stroke-width:2.0;" width="467" x="112" y="926.8047"/><text fill="#000000" font-family="sans-serif" font-size="13" font-weight="bold" lengthAdjust="spacing" textLength="92" x="127" y="941.2998">Add New Cells</text><polygon fill="#A80036" points="481.5,963.5078,491.5,967.5078,481.5,971.5078,485.5,967.5078" style="stroke:#A80036;stroke-width:1.0;"/><line style="stroke:#A80036;stroke-width:1.0;" x1="183.5" x2="487.5" y1="967.5078" y2="967.5078"/><text fill="#000000" font-family="sans-serif" font-size="13" lengthAdjust="spacing" textLength="268" x="204.5" y="962.6514">[6.b] WRITE-REPLACE WARNING REQUEST</text><polygon fill="#A80036" points="194.5,993.8594,184.5,997.8594,194.5,1001.8594,190.5,997.8594" style="stroke:#A80036;stroke-width:1.0;"/><line style="stroke:#A80036;stroke-width:1.0;" x1="188.5" x2="492.5" y1="997.8594" y2="997.8594"/><text fill="#000000" font-family="sans-serif" font-size="13" lengthAdjust="spacing" textLength="279" x="199" y="993.0029">[7.b] WRITE-REPLACE WARNING RESPONSE</text><path d="M127,1012.8594 L306,1012.8594 L306,1020.8594 L296,1030.8594 L122,1030.8594 L122,1017.8594 A5,5 0 0 1 127,1012.8594 " fill="#EEEEEE" style="stroke:#A0A0FF;stroke-width:1.0;"/><rect fill="none" height="99.4063" rx="5" ry="5" style="stroke:#A0A0FF;stroke-width:2.0;" width="447" x="122" y="1012.8594"/><text fill="#000000" font-family="sans-serif" font-size="13" font-weight="bold" lengthAdjust="spacing" textLength="139" x="137" y="1027.3545">One or more per MME</text><rect fill="#FBFB77" height="40" rx="5" ry="5" style="stroke:#A80036;stroke-width:1.0;" width="131" x="428" y="1036.2109"/><text fill="#000000" font-family="sans-serif" font-size="13" lengthAdjust="spacing" textLength="119" x="432" y="1053.7061">Receiving responses</text><text fill="#000000" font-family="sans-serif" font-size="13" lengthAdjust="spacing" textLength="61" x="432" y="1070.0576">from eNBs</text><polygon fill="#A80036" points="194.5,1100.2656,184.5,1104.2656,194.5,1108.2656,190.5,1104.2656" style="stroke:#A80036;stroke-width:1.0;"/><line style="stroke:#A80036;stroke-width:1.0;" x1="188.5" x2="492.5" y1="1104.2656" y2="1104.2656"/><text fill="#000000" font-family="sans-serif" font-size="13" lengthAdjust="spacing" textLength="277" x="200" y="1099.4092">[8.b] WRITE-REPLACE WARNING INDICATION</text><rect fill="#FBFB77" height="24" rx="5" ry="5" style="stroke:#A80036;stroke-width:1.0;" width="411" x="133" y="1124.2656"/><text fill="#000000" font-family="sans-serif" font-size="13" lengthAdjust="spacing" textLength="181" x="248" y="1141.7607">Broadcasting alert in new cells.</text><path d="M117,1167.6172 L266,1167.6172 L266,1175.6172 L256,1185.6172 L112,1185.6172 L112,1172.6172 A5,5 0 0 1 117,1167.6172 " fill="#EEEEEE" style="stroke:#A0A0FF;stroke-width:1.0;"/><rect fill="none" height="226.8125" rx="5" ry="5" style="stroke:#A0A0FF;stroke-width:2.0;" width="467" x="112" y="1167.6172"/><text fill="#000000" font-family="sans-serif" font-size="13" font-weight="bold" lengthAdjust="spacing" textLength="109" x="127" y="1182.1123">Remove old cells</text><polygon fill="#A80036" points="481.5,1204.3203,491.5,1208.3203,481.5,1212.3203,485.5,1208.3203" style="stroke:#A80036;stroke-width:1.0;"/><line style="stroke:#A80036;stroke-width:1.0;" x1="183.5" x2="487.5" y1="1208.3203" y2="1208.3203"/><text fill="#000000" font-family="sans-serif" font-size="13" lengthAdjust="spacing" textLength="197" x="240" y="1203.4639">[9.b] STOP WARNING REQUEST</text><polygon fill="#A80036" points="194.5,1234.6719,184.5,1238.6719,194.5,1242.6719,190.5,1238.6719" style="stroke:#A80036;stroke-width:1.0;"/><line style="stroke:#A80036;stroke-width:1.0;" x1="188.5" x2="492.5" y1="1238.6719" y2="1238.6719"/><text fill="#000000" font-family="sans-serif" font-size="13" lengthAdjust="spacing" textLength="215" x="231" y="1233.8154">[10.b] STOP WARNING RESPONSE</text><path d="M127,1253.6719 L306,1253.6719 L306,1261.6719 L296,1271.6719 L122,1271.6719 L122,1258.6719 A5,5 0 0 1 127,1253.6719 " fill="#EEEEEE" style="stroke:#A0A0FF;stroke-width:1.0;"/><rect fill="none" height="99.4063" rx="5" ry="5" style="stroke:#A0A0FF;stroke-width:2.0;" width="447" x="122" y="1253.6719"/><text fill="#000000" font-family="sans-serif" font-size="13" font-weight="bold" lengthAdjust="spacing" textLength="139" x="137" y="1268.167">One or more per MME</text><rect fill="#FBFB77" height="40" rx="5" ry="5" style="stroke:#A80036;stroke-width:1.0;" width="131" x="428" y="1277.0234"/><text fill="#000000" font-family="sans-serif" font-size="13" lengthAdjust="spacing" textLength="119" x="432" y="1294.5186">Receiving responses</text><text fill="#000000" font-family="sans-serif" font-size="13" lengthAdjust="spacing" textLength="61" x="432" y="1310.8701">from eNBs</text><polygon fill="#A80036" points="194.5,1341.0781,184.5,1345.0781,194.5,1349.0781,190.5,1345.0781" style="stroke:#A80036;stroke-width:1.0;"/><line style="stroke:#A80036;stroke-width:1.0;" x1="188.5" x2="492.5" y1="1345.0781" y2="1345.0781"/><text fill="#000000" font-family="sans-serif" font-size="13" lengthAdjust="spacing" textLength="213" x="232" y="1340.2217">[11.b] STOP WARNING INDICATION</text><rect fill="#FBFB77" height="24" rx="5" ry="5" style="stroke:#A80036;stroke-width:1.0;" width="411" x="133" y="1365.0781"/><text fill="#000000" font-family="sans-serif" font-size="13" lengthAdjust="spacing" textLength="219" x="229" y="1382.5732">Broadcast cancelled in removed cells.</text><polygon fill="#A80036" points="82,1433.7813,72,1437.7813,82,1441.7813,78,1437.7813" style="stroke:#A80036;stroke-width:1.0;"/><line style="stroke:#A80036;stroke-width:1.0;stroke-dasharray:2.0,2.0;" x1="76" x2="182.5" y1="1437.7813" y2="1437.7813"/><text fill="#000000" font-family="sans-serif" font-size="13" lengthAdjust="spacing" textLength="52" x="101.25" y="1432.9248">feedback</text><!--MD5=[98d4d5deadeddd1ad61d21e4bbe1bbb2]
@startuml
hide footbox
skinparam Shadowing false
skinparam BackgroundColor #f2f2f2
skinparam SequenceGroupBodyBackgroundColor transparent
skinparam roundcorner 10
skinparam ParticipantPadding 30
skinparam BoxPadding 10
skinparam SequenceGroupBorderColor #a0a0ff
skinparam SequenceMessageAlign center

participant CBE as cbe
participant CBC as cbc
collections MME as mme

group Start alert
    cbe -> cbc: [1] CAP Alert
    cbc -> mme: [2] WRITE-REPLACE WARNING REQUEST
    mme -> cbc: [3] WRITE-REPLACE WARNING RESPONSE
    group One or more per MME
        rnote over mme
            Receiving responses 
            from eNBs
        endrnote
        mme -> cbc: [4] WRITE-REPLACE WARNING INDICATION
    end
end
note across: Broadcast runs for 1 broadcast period or more.

group Update alert area
    cbe -> cbc: [5] CAP Alert
    group Option 1
        group Stop broadcast completely
            cbc -> mme: [6.a] STOP WARNING REQUEST
            mme -> cbc: [7.a] STOP WARNING RESPONSE
            group One or more per MME
                rnote over mme
                    Receiving responses 
                    from eNBs
                endrnote
                mme -> cbc: [8.a] STOP WARNING INDICATION
            end
            rnote over cbc, mme
                Broadcast stopped completely.
            endrnote
        end
        group Re-start broadcast in new area
            cbc -> mme: [9.a] WRITE-REPLACE WARNING REQUEST
            mme -> cbc: [10.a] WRITE-REPLACE WARNING RESPONSE
            group One or more per MME
                rnote over mme
                    Receiving responses 
                    from eNBs
                endrnote
                mme -> cbc: [11.a] WRITE-REPLACE WARNING INDICATION
            end
            rnote over cbc, mme
                Broadcast re-started in new area.
            endrnote
        end
    end
    group Option 2
        group Add New Cells
            cbc -> mme: [6.b] WRITE-REPLACE WARNING REQUEST
            mme -> cbc: [7.b] WRITE-REPLACE WARNING RESPONSE
            group One or more per MME
                rnote over mme
                    Receiving responses 
                    from eNBs
                endrnote
                mme -> cbc: [8.b] WRITE-REPLACE WARNING INDICATION
            end
            rnote over cbc, mme
                Broadcasting alert in new cells.
            endrnote
        end
        group Remove old cells
            cbc -> mme: [9.b] STOP WARNING REQUEST
            mme -> cbc: [10.b] STOP WARNING RESPONSE
            group One or more per MME
                rnote over mme
                    Receiving responses 
                    from eNBs
                endrnote
                mme -> cbc: [11.b] STOP WARNING INDICATION
            end
            rnote over cbc, mme
                Broadcast cancelled in removed cells.
            endrnote
        end
    end
end
cbc - -> cbe: feedback
@enduml

PlantUML version 1.2022.0(Tue Jan 11 17:16:42 CET 2022)
(GPL source distribution)
Java Runtime: Java(TM) SE Runtime Environment
JVM: Java HotSpot(TM) Client VM
Default Encoding: Cp1252
Language: en
Country: GB
--></g></svg>