<?xml version="1.0" encoding="UTF-8" standalone="no"?><svg xmlns="http://www.w3.org/2000/svg" xmlns:xlink="http://www.w3.org/1999/xlink" contentScriptType="application/ecmascript" contentStyleType="text/css" height="735px" preserveAspectRatio="none" style="width:577px;height:735px;background:#F2F2F2;" version="1.1" viewBox="0 0 577 735" width="577px" zoomAndPan="magnify"><defs/><g><line style="stroke:#A80036;stroke-width:1.0;stroke-dasharray:5.0,5.0;" x1="71" x2="71" y1="41.6094" y2="728.9922"/><line style="stroke:#A80036;stroke-width:1.0;stroke-dasharray:5.0,5.0;" x1="183" x2="183" y1="41.6094" y2="728.9922"/><line style="stroke:#A80036;stroke-width:1.0;stroke-dasharray:5.0,5.0;" x1="486" x2="486" y1="41.6094" y2="728.9922"/><rect fill="#FEFECE" height="31.6094" rx="5" ry="5" style="stroke:#A80036;stroke-width:1.5;" width="42" x="50" y="9"/><text fill="#000000" font-family="sans-serif" font-size="14" lengthAdjust="spacing" textLength="28" x="57" y="30.5332">CBE</text><rect fill="#FEFECE" height="31.6094" rx="5" ry="5" style="stroke:#A80036;stroke-width:1.5;" width="43" x="162" y="9"/><text fill="#000000" font-family="sans-serif" font-size="14" lengthAdjust="spacing" textLength="29" x="169" y="30.5332">CBC</text><rect fill="#FEFECE" height="31.6094" rx="5" ry="5" style="stroke:#A80036;stroke-width:1.5;" width="45" x="466" y="5"/><rect fill="#FEFECE" height="31.6094" rx="5" ry="5" style="stroke:#A80036;stroke-width:1.5;" width="45" x="462" y="9"/><text fill="#000000" font-family="sans-serif" font-size="14" lengthAdjust="spacing" textLength="31" x="469" y="30.5332">MME</text><path d="M15,58.6094 L118,58.6094 L118,66.6094 L108,76.6094 L10,76.6094 L10,63.6094 A5,5 0 0 1 15,58.6094 " fill="#EEEEEE" style="stroke:#A0A0FF;stroke-width:1.0;"/><rect fill="none" height="109.4063" rx="5" ry="5" style="stroke:#A0A0FF;stroke-width:2.0;" width="541" x="10" y="58.6094"/><text fill="#000000" font-family="sans-serif" font-size="13" font-weight="bold" lengthAdjust="spacing" textLength="63" x="25" y="73.1045">Start alert</text><polygon fill="#A80036" points="171.5,95.3125,181.5,99.3125,171.5,103.3125,175.5,99.3125" style="stroke:#A80036;stroke-width:1.0;"/><line style="stroke:#A80036;stroke-width:1.0;" x1="71" x2="177.5" y1="99.3125" y2="99.3125"/><text fill="#000000" font-family="sans-serif" font-size="13" lengthAdjust="spacing" textLength="77" x="88.75" y="94.4561">[1] CAP Alert</text><polygon fill="#A80036" points="474.5,125.6641,484.5,129.6641,474.5,133.6641,478.5,129.6641" style="stroke:#A80036;stroke-width:1.0;"/><line style="stroke:#A80036;stroke-width:1.0;" x1="183.5" x2="480.5" y1="129.6641" y2="129.6641"/><text fill="#000000" font-family="sans-serif" font-size="13" lengthAdjust="spacing" textLength="257" x="206.5" y="124.8076">[2] WRITE-REPLACE WARNING REQUEST</text><polygon fill="#A80036" points="194.5,156.0156,184.5,160.0156,194.5,164.0156,190.5,160.0156" style="stroke:#A80036;stroke-width:1.0;"/><line style="stroke:#A80036;stroke-width:1.0;" x1="188.5" x2="485.5" y1="160.0156" y2="160.0156"/><text fill="#000000" font-family="sans-serif" font-size="13" lengthAdjust="spacing" textLength="268" x="201" y="155.1592">[3] WRITE-REPLACE WARNING RESPONSE</text><path d="M20,185.0156 L20,201.0156 A5,5 0 0 0 25,206.0156 L531,206.0156 A5,5 0 0 0 536,201.0156 L536,190.0156 L526,180.0156 L25,180.0156 A5,5 0 0 0 20,185.0156 " fill="#FBFB77" style="stroke:#A80036;stroke-width:1.0;"/><path d="M526,180.0156 L526,187.5156 A2.5,2.5 0 0 0 528.5,190.0156 L536,190.0156 L526,180.0156 " fill="#FBFB77" style="stroke:#A80036;stroke-width:1.0;"/><text fill="#000000" font-family="sans-serif" font-size="13" lengthAdjust="spacing" textLength="269" x="139" y="198.5107">Broadcast runs for 1 broadcast period or more.</text><path d="M15,218.3672 L166,218.3672 L166,226.3672 L156,236.3672 L10,236.3672 L10,223.3672 A5,5 0 0 1 15,218.3672 " fill="#EEEEEE" style="stroke:#A0A0FF;stroke-width:1.0;"/><rect fill="none" height="463.2734" rx="5" ry="5" style="stroke:#A0A0FF;stroke-width:2.0;" width="561" x="10" y="218.3672"/><text fill="#000000" font-family="sans-serif" font-size="13" font-weight="bold" lengthAdjust="spacing" textLength="111" x="25" y="232.8623">Update alert area</text><polygon fill="#A80036" points="171.5,255.0703,181.5,259.0703,171.5,263.0703,175.5,259.0703" style="stroke:#A80036;stroke-width:1.0;"/><line style="stroke:#A80036;stroke-width:1.0;" x1="71" x2="177.5" y1="259.0703" y2="259.0703"/><text fill="#000000" font-family="sans-serif" font-size="13" lengthAdjust="spacing" textLength="77" x="88.75" y="254.2139">[4] CAP Alert</text><path d="M117,274.0703 L210,274.0703 L210,282.0703 L200,292.0703 L112,292.0703 L112,279.0703 A5,5 0 0 1 117,274.0703 " fill="#EEEEEE" style="stroke:#A0A0FF;stroke-width:1.0;"/><rect fill="none" height="273.1641" rx="5" ry="5" style="stroke:#A0A0FF;stroke-width:2.0;" width="449" x="112" y="274.0703"/><text fill="#000000" font-family="sans-serif" font-size="13" font-weight="bold" lengthAdjust="spacing" textLength="53" x="127" y="288.5654">Option 1</text><path d="M127,299.4219 L336,299.4219 L336,307.4219 L326,317.4219 L122,317.4219 L122,304.4219 A5,5 0 0 1 127,299.4219 " fill="#EEEEEE" style="stroke:#A0A0FF;stroke-width:1.0;"/><rect fill="none" height="113.4063" rx="5" ry="5" style="stroke:#A0A0FF;stroke-width:2.0;" width="429" x="122" y="299.4219"/><text fill="#000000" font-family="sans-serif" font-size="13" font-weight="bold" lengthAdjust="spacing" textLength="169" x="137" y="313.917">Stop broadcast completely</text><polygon fill="#A80036" points="474.5,336.125,484.5,340.125,474.5,344.125,478.5,340.125" style="stroke:#A80036;stroke-width:1.0;"/><line style="stroke:#A80036;stroke-width:1.0;" x1="183.5" x2="480.5" y1="340.125" y2="340.125"/><text fill="#000000" font-family="sans-serif" font-size="13" lengthAdjust="spacing" textLength="197" x="236.5" y="335.2686">[5.a] STOP WARNING REQUEST</text><polygon fill="#A80036" points="194.5,366.4766,184.5,370.4766,194.5,374.4766,190.5,370.4766" style="stroke:#A80036;stroke-width:1.0;"/><line style="stroke:#A80036;stroke-width:1.0;" x1="188.5" x2="485.5" y1="370.4766" y2="370.4766"/><text fill="#000000" font-family="sans-serif" font-size="13" lengthAdjust="spacing" textLength="208" x="231" y="365.6201">[6.a] STOP WARNING RESPONSE</text><rect fill="#FBFB77" height="24" rx="5" ry="5" style="stroke:#A80036;stroke-width:1.0;" width="404" x="133" y="383.4766"/><text fill="#000000" font-family="sans-serif" font-size="13" lengthAdjust="spacing" textLength="180" x="245" y="400.9717">Broadcast stopped completely.</text><path d="M127,426.8281 L387,426.8281 L387,434.8281 L377,444.8281 L122,444.8281 L122,431.8281 A5,5 0 0 1 127,426.8281 " fill="#EEEEEE" style="stroke:#A0A0FF;stroke-width:1.0;"/><rect fill="none" height="113.4063" rx="5" ry="5" style="stroke:#A0A0FF;stroke-width:2.0;" width="429" x="122" y="426.8281"/><text fill="#000000" font-family="sans-serif" font-size="13" font-weight="bold" lengthAdjust="spacing" textLength="220" x="137" y="441.3232">Re-start broadcast with new timing</text><polygon fill="#A80036" points="474.5,463.5313,484.5,467.5313,474.5,471.5313,478.5,467.5313" style="stroke:#A80036;stroke-width:1.0;"/><line style="stroke:#A80036;stroke-width:1.0;" x1="183.5" x2="480.5" y1="467.5313" y2="467.5313"/><text fill="#000000" font-family="sans-serif" font-size="13" lengthAdjust="spacing" textLength="268" x="201" y="462.6748">[7.a] WRITE-REPLACE WARNING REQUEST</text><polygon fill="#A80036" points="194.5,493.8828,184.5,497.8828,194.5,501.8828,190.5,497.8828" style="stroke:#A80036;stroke-width:1.0;"/><line style="stroke:#A80036;stroke-width:1.0;" x1="188.5" x2="485.5" y1="497.8828" y2="497.8828"/><text fill="#000000" font-family="sans-serif" font-size="13" lengthAdjust="spacing" textLength="279" x="195.5" y="493.0264">[8.a] WRITE-REPLACE WARNING RESPONSE</text><rect fill="#FBFB77" height="24" rx="5" ry="5" style="stroke:#A80036;stroke-width:1.0;" width="404" x="133" y="510.8828"/><text fill="#000000" font-family="sans-serif" font-size="13" lengthAdjust="spacing" textLength="389" x="140.5" y="528.3779">Broadcast re-started with new periodicity and number of repetitions.</text><path d="M127,561.2344 L220,561.2344 L220,569.2344 L210,579.2344 L122,579.2344 L122,566.2344 A5,5 0 0 1 127,561.2344 " fill="#EEEEEE" style="stroke:#A0A0FF;stroke-width:1.0;"/><rect fill="none" height="113.4063" rx="5" ry="5" style="stroke:#A0A0FF;stroke-width:2.0;" width="429" x="122" y="561.2344"/><text fill="#000000" font-family="sans-serif" font-size="13" font-weight="bold" lengthAdjust="spacing" textLength="53" x="137" y="575.7295">Option 2</text><polygon fill="#A80036" points="474.5,597.9375,484.5,601.9375,474.5,605.9375,478.5,601.9375" style="stroke:#A80036;stroke-width:1.0;"/><line style="stroke:#A80036;stroke-width:1.0;" x1="183.5" x2="480.5" y1="601.9375" y2="601.9375"/><text fill="#000000" font-family="sans-serif" font-size="13" lengthAdjust="spacing" textLength="268" x="201" y="597.0811">[5.b] WRITE-REPLACE WARNING REQUEST</text><polygon fill="#A80036" points="194.5,628.2891,184.5,632.2891,194.5,636.2891,190.5,632.2891" style="stroke:#A80036;stroke-width:1.0;"/><line style="stroke:#A80036;stroke-width:1.0;" x1="188.5" x2="485.5" y1="632.2891" y2="632.2891"/><text fill="#000000" font-family="sans-serif" font-size="13" lengthAdjust="spacing" textLength="279" x="195.5" y="627.4326">[6.b] WRITE-REPLACE WARNING RESPONSE</text><rect fill="#FBFB77" height="24" rx="5" ry="5" style="stroke:#A80036;stroke-width:1.0;" width="404" x="133" y="645.2891"/><text fill="#000000" font-family="sans-serif" font-size="13" lengthAdjust="spacing" textLength="376" x="147" y="662.7842">Broadcasting alert with new periodicity and number of repetitions.</text><polygon fill="#A80036" points="82,706.9922,72,710.9922,82,714.9922,78,710.9922" style="stroke:#A80036;stroke-width:1.0;"/><line style="stroke:#A80036;stroke-width:1.0;stroke-dasharray:2.0,2.0;" x1="76" x2="182.5" y1="710.9922" y2="710.9922"/><text fill="#000000" font-family="sans-serif" font-size="13" lengthAdjust="spacing" textLength="52" x="101.25" y="706.1357">feedback</text><!--MD5=[3ae1f2d43f13142645580a0ec39e0334]
@startuml
hide footbox
skinparam Shadowing false
skinparam BackgroundColor #f2f2f2
skinparam SequenceGroupBodyBackgroundColor transparent
skinparam roundcorner 10
skinparam ParticipantPadding 30
skinparam BoxPadding 10
skinparam SequenceGroupBorderColor #a0a0ff
skinparam SequenceMessageAlign center

participant CBE as cbe
participant CBC as cbc
collections MME as mme

group Start alert
    cbe -> cbc: [1] CAP Alert
    cbc -> mme: [2] WRITE-REPLACE WARNING REQUEST
    mme -> cbc: [3] WRITE-REPLACE WARNING RESPONSE
end
note across: Broadcast runs for 1 broadcast period or more.

group Update alert area
    cbe -> cbc: [4] CAP Alert
    group Option 1
        group Stop broadcast completely
            cbc -> mme: [5.a] STOP WARNING REQUEST
            mme -> cbc: [6.a] STOP WARNING RESPONSE
            rnote over cbc, mme
                Broadcast stopped completely.
            endrnote
        end
        group Re-start broadcast with new timing
            cbc -> mme: [7.a] WRITE-REPLACE WARNING REQUEST
            mme -> cbc: [8.a] WRITE-REPLACE WARNING RESPONSE
            rnote over cbc, mme
                Broadcast re-started with new periodicity and number of repetitions.
            endrnote
        end
    end
    group Option 2
        cbc -> mme: [5.b] WRITE-REPLACE WARNING REQUEST
        mme -> cbc: [6.b] WRITE-REPLACE WARNING RESPONSE
        rnote over cbc, mme
            Broadcasting alert with new periodicity and number of repetitions.
        endrnote
    end
end
cbc - -> cbe: feedback
@enduml

PlantUML version 1.2022.0(Tue Jan 11 17:16:42 CET 2022)
(GPL source distribution)
Java Runtime: Java(TM) SE Runtime Environment
JVM: Java HotSpot(TM) Client VM
Default Encoding: Cp1252
Language: en
Country: GB
--></g></svg>