<?xml version="1.0" encoding="UTF-8" standalone="no"?><svg xmlns="http://www.w3.org/2000/svg" xmlns:xlink="http://www.w3.org/1999/xlink" contentScriptType="application/ecmascript" contentStyleType="text/css" height="281px" preserveAspectRatio="none" style="width:623px;height:281px;background:#F2F2F2;" version="1.1" viewBox="0 0 623 281" width="623px" zoomAndPan="magnify"><defs/><g><line style="stroke:#A80036;stroke-width:1.0;stroke-dasharray:5.0,5.0;" x1="56" x2="56" y1="37.6094" y2="274.0703"/><line style="stroke:#A80036;stroke-width:1.0;stroke-dasharray:5.0,5.0;" x1="168" x2="168" y1="37.6094" y2="274.0703"/><line style="stroke:#A80036;stroke-width:1.0;stroke-dasharray:5.0,5.0;" x1="460.5" x2="460.5" y1="37.6094" y2="274.0703"/><line style="stroke:#A80036;stroke-width:1.0;stroke-dasharray:5.0,5.0;" x1="588.5" x2="588.5" y1="37.6094" y2="274.0703"/><rect fill="#FEFECE" height="31.6094" rx="5" ry="5" style="stroke:#A80036;stroke-width:1.5;" width="42" x="35" y="5"/><text fill="#000000" font-family="sans-serif" font-size="14" lengthAdjust="spacing" textLength="28" x="42" y="26.5332">CBE</text><rect fill="#FEFECE" height="31.6094" rx="5" ry="5" style="stroke:#A80036;stroke-width:1.5;" width="43" x="147" y="5"/><text fill="#000000" font-family="sans-serif" font-size="14" lengthAdjust="spacing" textLength="29" x="154" y="26.5332">CBC</text><rect fill="#FEFECE" height="31.6094" rx="5" ry="5" style="stroke:#A80036;stroke-width:1.5;" width="58" x="431.5" y="5"/><text fill="#000000" font-family="sans-serif" font-size="14" lengthAdjust="spacing" textLength="44" x="438.5" y="26.5332">MME-a</text><rect fill="#FEFECE" height="31.6094" rx="5" ry="5" style="stroke:#A80036;stroke-width:1.5;" width="58" x="559.5" y="5"/><text fill="#000000" font-family="sans-serif" font-size="14" lengthAdjust="spacing" textLength="44" x="566.5" y="26.5332">MME-b</text><polygon fill="#A80036" points="156.5,65.9609,166.5,69.9609,156.5,73.9609,160.5,69.9609" style="stroke:#A80036;stroke-width:1.0;"/><line style="stroke:#A80036;stroke-width:1.0;" x1="56" x2="162.5" y1="69.9609" y2="69.9609"/><text fill="#000000" font-family="sans-serif" font-size="13" lengthAdjust="spacing" textLength="77" x="73.75" y="65.1045">[1] CAP Alert</text><polygon fill="#A80036" points="448.5,96.3125,458.5,100.3125,448.5,104.3125,452.5,100.3125" style="stroke:#A80036;stroke-width:1.0;"/><line style="stroke:#A80036;stroke-width:1.0;" x1="168.5" x2="454.5" y1="100.3125" y2="100.3125"/><text fill="#000000" font-family="sans-serif" font-size="13" lengthAdjust="spacing" textLength="257" x="186" y="95.4561">[2] WRITE-REPLACE WARNING REQUEST</text><rect fill="#FBFB77" height="24" rx="5" ry="5" style="stroke:#A80036;stroke-width:1.0;" width="149" x="94" y="113.3125"/><text fill="#000000" font-family="sans-serif" font-size="13" lengthAdjust="spacing" textLength="141" x="98" y="130.8076">Timeout for RESPONSE</text><polygon fill="#A80036" points="576.5,161.0156,586.5,165.0156,576.5,169.0156,580.5,165.0156" style="stroke:#A80036;stroke-width:1.0;"/><line style="stroke:#A80036;stroke-width:1.0;" x1="168.5" x2="582.5" y1="165.0156" y2="165.0156"/><text fill="#000000" font-family="sans-serif" font-size="13" lengthAdjust="spacing" textLength="257" x="250" y="160.1592">[3] WRITE-REPLACE WARNING REQUEST</text><polygon fill="#A80036" points="179.5,191.3672,169.5,195.3672,179.5,199.3672,175.5,195.3672" style="stroke:#A80036;stroke-width:1.0;"/><line style="stroke:#A80036;stroke-width:1.0;" x1="173.5" x2="587.5" y1="195.3672" y2="195.3672"/><text fill="#000000" font-family="sans-serif" font-size="13" lengthAdjust="spacing" textLength="268" x="244.5" y="190.5107">[4] WRITE-REPLACE WARNING RESPONSE</text><polygon fill="#A80036" points="67,221.7188,57,225.7188,67,229.7188,63,225.7188" style="stroke:#A80036;stroke-width:1.0;"/><line style="stroke:#A80036;stroke-width:1.0;stroke-dasharray:2.0,2.0;" x1="61" x2="167.5" y1="225.7188" y2="225.7188"/><text fill="#000000" font-family="sans-serif" font-size="13" lengthAdjust="spacing" textLength="67" x="78.75" y="220.8623">[5]feedback</text><polygon fill="#A80036" points="179.5,252.0703,169.5,256.0703,179.5,260.0703,175.5,256.0703" style="stroke:#A80036;stroke-width:1.0;"/><line style="stroke:#A80036;stroke-width:1.0;stroke-dasharray:2.0,2.0;" x1="173.5" x2="459.5" y1="256.0703" y2="256.0703"/><text fill="#000000" font-family="sans-serif" font-size="13" lengthAdjust="spacing" textLength="268" x="180.5" y="251.2139">[6] WRITE-REPLACE WARNING RESPONSE</text><!--MD5=[bff4641eed1a7c7208bc7f7d8639e9bc]
@startuml
hide footbox
skinparam Shadowing false
skinparam BackgroundColor #f2f2f2
skinparam SequenceGroupBodyBackgroundColor transparent
skinparam roundcorner 10
skinparam ParticipantPadding 30
skinparam BoxPadding 10
skinparam SequenceGroupBorderColor #a0a0ff
skinparam SequenceMessageAlign center

participant CBE as cbe
participant CBC as cbc
participant "MME-a" as mmea
participant "MME-b" as mmeb

cbe -> cbc: [1] CAP Alert
cbc -> mmea: [2] WRITE-REPLACE WARNING REQUEST
rnote over cbc
    Timeout for RESPONSE
endrnote
cbc -> mmeb: [3] WRITE-REPLACE WARNING REQUEST
mmeb -> cbc: [4] WRITE-REPLACE WARNING RESPONSE
cbc - -> cbe: [5]feedback
mmea - -> cbc: [6] WRITE-REPLACE WARNING RESPONSE

@enduml

PlantUML version 1.2022.0(Tue Jan 11 17:16:42 CET 2022)
(GPL source distribution)
Java Runtime: Java(TM) SE Runtime Environment
JVM: Java HotSpot(TM) Client VM
Default Encoding: Cp1252
Language: en
Country: GB
--></g></svg>