<?xml version="1.0" encoding="UTF-8" standalone="no"?><svg xmlns="http://www.w3.org/2000/svg" xmlns:xlink="http://www.w3.org/1999/xlink" contentScriptType="application/ecmascript" contentStyleType="text/css" height="335px" preserveAspectRatio="none" style="width:525px;height:335px;background:#F2F2F2;" version="1.1" viewBox="0 0 525 335" width="525px" zoomAndPan="magnify"><defs/><g><line style="stroke:#A80036;stroke-width:1.0;stroke-dasharray:5.0,5.0;" x1="56" x2="56" y1="37.6094" y2="328.4219"/><line style="stroke:#A80036;stroke-width:1.0;stroke-dasharray:5.0,5.0;" x1="168" x2="168" y1="37.6094" y2="328.4219"/><line style="stroke:#A80036;stroke-width:1.0;stroke-dasharray:5.0,5.0;" x1="460" x2="460" y1="37.6094" y2="328.4219"/><rect fill="#FEFECE" height="31.6094" rx="5" ry="5" style="stroke:#A80036;stroke-width:1.5;" width="42" x="35" y="5"/><text fill="#000000" font-family="sans-serif" font-size="14" lengthAdjust="spacing" textLength="28" x="42" y="26.5332">CBE</text><rect fill="#FEFECE" height="31.6094" rx="5" ry="5" style="stroke:#A80036;stroke-width:1.5;" width="43" x="147" y="5"/><text fill="#000000" font-family="sans-serif" font-size="14" lengthAdjust="spacing" textLength="29" x="154" y="26.5332">CBC</text><rect fill="#FEFECE" height="31.6094" rx="5" ry="5" style="stroke:#A80036;stroke-width:1.5;" width="45" x="438" y="5"/><text fill="#000000" font-family="sans-serif" font-size="14" lengthAdjust="spacing" textLength="31" x="445" y="26.5332">MME</text><polygon fill="#A80036" points="156.5,65.9609,166.5,69.9609,156.5,73.9609,160.5,69.9609" style="stroke:#A80036;stroke-width:1.0;"/><line style="stroke:#A80036;stroke-width:1.0;" x1="56" x2="162.5" y1="69.9609" y2="69.9609"/><text fill="#000000" font-family="sans-serif" font-size="13" lengthAdjust="spacing" textLength="77" x="73.75" y="65.1045">[1] CAP Alert</text><polygon fill="#A80036" points="448.5,96.3125,458.5,100.3125,448.5,104.3125,452.5,100.3125" style="stroke:#A80036;stroke-width:1.0;"/><line style="stroke:#A80036;stroke-width:1.0;" x1="168.5" x2="454.5" y1="100.3125" y2="100.3125"/><text fill="#000000" font-family="sans-serif" font-size="13" lengthAdjust="spacing" textLength="257" x="186" y="95.4561">[2] WRITE-REPLACE WARNING REQUEST</text><polygon fill="#A80036" points="179.5,126.6641,169.5,130.6641,179.5,134.6641,175.5,130.6641" style="stroke:#A80036;stroke-width:1.0;"/><line style="stroke:#A80036;stroke-width:1.0;" x1="173.5" x2="459.5" y1="130.6641" y2="130.6641"/><text fill="#000000" font-family="sans-serif" font-size="13" lengthAdjust="spacing" textLength="268" x="180.5" y="125.8076">[3] WRITE-REPLACE WARNING RESPONSE</text><rect fill="#EEEEEE" height="3" style="stroke:#EEEEEE;stroke-width:1.0;" width="518" x="0" y="159.8398"/><line style="stroke:#000000;stroke-width:1.0;" x1="0" x2="518" y1="159.8398" y2="159.8398"/><line style="stroke:#000000;stroke-width:1.0;" x1="0" x2="518" y1="162.8398" y2="162.8398"/><rect fill="#EEEEEE" height="24.3516" style="stroke:#000000;stroke-width:2.0;" width="101" x="208.5" y="148.6641"/><text fill="#000000" font-family="sans-serif" font-size="13" font-weight="bold" lengthAdjust="spacing" textLength="83" x="214.5" y="166.1592">Alert 1 active</text><polygon fill="#A80036" points="156.5,201.3672,166.5,205.3672,156.5,209.3672,160.5,205.3672" style="stroke:#A80036;stroke-width:1.0;"/><line style="stroke:#A80036;stroke-width:1.0;" x1="56" x2="162.5" y1="205.3672" y2="205.3672"/><text fill="#000000" font-family="sans-serif" font-size="13" lengthAdjust="spacing" textLength="77" x="73.75" y="200.5107">[4] CAP Alert</text><polygon fill="#A80036" points="448.5,231.7188,458.5,235.7188,448.5,239.7188,452.5,235.7188" style="stroke:#A80036;stroke-width:1.0;"/><line style="stroke:#A80036;stroke-width:1.0;" x1="168.5" x2="454.5" y1="235.7188" y2="235.7188"/><text fill="#000000" font-family="sans-serif" font-size="13" lengthAdjust="spacing" textLength="257" x="186" y="230.8623">[5] WRITE-REPLACE WARNING REQUEST</text><polygon fill="#A80036" points="179.5,262.0703,169.5,266.0703,179.5,270.0703,175.5,266.0703" style="stroke:#A80036;stroke-width:1.0;"/><line style="stroke:#A80036;stroke-width:1.0;" x1="173.5" x2="459.5" y1="266.0703" y2="266.0703"/><text fill="#000000" font-family="sans-serif" font-size="13" lengthAdjust="spacing" textLength="268" x="180.5" y="261.2139">[6] WRITE-REPLACE WARNING RESPONSE</text><rect fill="#EEEEEE" height="3" style="stroke:#EEEEEE;stroke-width:1.0;" width="518" x="0" y="295.2461"/><line style="stroke:#000000;stroke-width:1.0;" x1="0" x2="518" y1="295.2461" y2="295.2461"/><line style="stroke:#000000;stroke-width:1.0;" x1="0" x2="518" y1="298.2461" y2="298.2461"/><rect fill="#EEEEEE" height="24.3516" style="stroke:#000000;stroke-width:2.0;" width="197" x="160.5" y="284.0703"/><text fill="#000000" font-family="sans-serif" font-size="13" font-weight="bold" lengthAdjust="spacing" textLength="179" x="166.5" y="301.5654">Alert 1 and 2 are both active</text><!--MD5=[ac559cb7e9aca69f5ccb6ab6a4576134]
@startuml
hide footbox
skinparam Shadowing false
skinparam BackgroundColor #f2f2f2
skinparam SequenceGroupBodyBackgroundColor transparent
skinparam roundcorner 10
skinparam ParticipantPadding 30
skinparam BoxPadding 10
skinparam SequenceGroupBorderColor #a0a0ff
skinparam SequenceMessageAlign center

participant CBE as cbe
participant CBC as cbc
participant MME as mme

cbe -> cbc: [1] CAP Alert
cbc -> mme: [2] WRITE-REPLACE WARNING REQUEST
mme -> cbc: [3] WRITE-REPLACE WARNING RESPONSE
== Alert 1 active ==
cbe -> cbc: [4] CAP Alert
cbc -> mme: [5] WRITE-REPLACE WARNING REQUEST
mme -> cbc: [6] WRITE-REPLACE WARNING RESPONSE
== Alert 1 and 2 are both active ==
@enduml

PlantUML version 1.2022.0(Tue Jan 11 17:16:42 CET 2022)
(GPL source distribution)
Java Runtime: Java(TM) SE Runtime Environment
JVM: Java HotSpot(TM) Client VM
Default Encoding: Cp1252
Language: en
Country: GB
--></g></svg>