<?xml version="1.0" encoding="UTF-8" standalone="no"?><svg xmlns="http://www.w3.org/2000/svg" xmlns:xlink="http://www.w3.org/1999/xlink" contentScriptType="application/ecmascript" contentStyleType="text/css" height="396px" preserveAspectRatio="none" style="width:595px;height:396px;background:#F2F2F2;" version="1.1" viewBox="0 0 595 396" width="595px" zoomAndPan="magnify"><defs/><g><line style="stroke:#A80036;stroke-width:1.0;stroke-dasharray:5.0,5.0;" x1="56" x2="56" y1="41.6094" y2="389.4766"/><line style="stroke:#A80036;stroke-width:1.0;stroke-dasharray:5.0,5.0;" x1="168" x2="168" y1="41.6094" y2="389.4766"/><line style="stroke:#A80036;stroke-width:1.0;stroke-dasharray:5.0,5.0;" x1="460" x2="460" y1="41.6094" y2="389.4766"/><line style="stroke:#A80036;stroke-width:1.0;stroke-dasharray:5.0,5.0;" x1="572" x2="572" y1="41.6094" y2="389.4766"/><rect fill="#FEFECE" height="31.6094" rx="5" ry="5" style="stroke:#A80036;stroke-width:1.5;" width="42" x="35" y="9"/><text fill="#000000" font-family="sans-serif" font-size="14" lengthAdjust="spacing" textLength="28" x="42" y="30.5332">CBE</text><rect fill="#FEFECE" height="31.6094" rx="5" ry="5" style="stroke:#A80036;stroke-width:1.5;" width="43" x="147" y="9"/><text fill="#000000" font-family="sans-serif" font-size="14" lengthAdjust="spacing" textLength="29" x="154" y="30.5332">CBC</text><rect fill="#FEFECE" height="31.6094" rx="5" ry="5" style="stroke:#A80036;stroke-width:1.5;" width="45" x="440" y="5"/><rect fill="#FEFECE" height="31.6094" rx="5" ry="5" style="stroke:#A80036;stroke-width:1.5;" width="45" x="436" y="9"/><text fill="#000000" font-family="sans-serif" font-size="14" lengthAdjust="spacing" textLength="31" x="443" y="30.5332">MME</text><rect fill="#FEFECE" height="31.6094" rx="5" ry="5" style="stroke:#A80036;stroke-width:1.5;" width="34" x="555" y="9"/><text fill="#000000" font-family="sans-serif" font-size="14" lengthAdjust="spacing" textLength="20" x="562" y="30.5332">FM</text><polygon fill="#A80036" points="156.5,69.9609,166.5,73.9609,156.5,77.9609,160.5,73.9609" style="stroke:#A80036;stroke-width:1.0;"/><line style="stroke:#A80036;stroke-width:1.0;" x1="56" x2="162.5" y1="73.9609" y2="73.9609"/><text fill="#000000" font-family="sans-serif" font-size="13" lengthAdjust="spacing" textLength="77" x="73.75" y="69.1045">[1] CAP Alert</text><path d="M112,88.9609 L180,88.9609 L180,96.9609 L170,106.9609 L107,106.9609 L107,93.9609 A5,5 0 0 1 112,88.9609 " fill="#EEEEEE" style="stroke:#A0A0FF;stroke-width:1.0;"/><rect fill="none" height="79.0547" rx="5" ry="5" style="stroke:#A0A0FF;stroke-width:2.0;" width="418" x="107" y="88.9609"/><text fill="#000000" font-family="sans-serif" font-size="13" font-weight="bold" lengthAdjust="spacing" textLength="28" x="122" y="103.4561">loop</text><text fill="#000000" font-family="sans-serif" font-size="11" font-weight="bold" lengthAdjust="spacing" textLength="191" x="195" y="102.3799">[one per MME involved in this test]</text><polygon fill="#A80036" points="448.5,125.6641,458.5,129.6641,448.5,133.6641,452.5,129.6641" style="stroke:#A80036;stroke-width:1.0;"/><line style="stroke:#A80036;stroke-width:1.0;" x1="168.5" x2="454.5" y1="129.6641" y2="129.6641"/><text fill="#000000" font-family="sans-serif" font-size="13" lengthAdjust="spacing" textLength="257" x="186" y="124.8076">[2] WRITE-REPLACE WARNING REQUEST</text><polygon fill="#A80036" points="179.5,156.0156,169.5,160.0156,179.5,164.0156,175.5,160.0156" style="stroke:#A80036;stroke-width:1.0;"/><line style="stroke:#A80036;stroke-width:1.0;" x1="173.5" x2="459.5" y1="160.0156" y2="160.0156"/><text fill="#000000" font-family="sans-serif" font-size="13" lengthAdjust="spacing" textLength="268" x="180.5" y="155.1592">[3] WRITE-REPLACE WARNING RESPONSE</text><polygon fill="#A80036" points="67,193.3672,57,197.3672,67,201.3672,63,197.3672" style="stroke:#A80036;stroke-width:1.0;"/><line style="stroke:#A80036;stroke-width:1.0;stroke-dasharray:2.0,2.0;" x1="61" x2="167.5" y1="197.3672" y2="197.3672"/><text fill="#000000" font-family="sans-serif" font-size="13" lengthAdjust="spacing" textLength="71" x="76.75" y="192.5107">[4] feedback</text><rect fill="#FBFB77" height="40" rx="5" ry="5" style="stroke:#A80036;stroke-width:1.0;" width="88" x="124" y="210.3672"/><text fill="#000000" font-family="sans-serif" font-size="13" lengthAdjust="spacing" textLength="76" x="128" y="227.8623">Log unknown</text><text fill="#000000" font-family="sans-serif" font-size="13" lengthAdjust="spacing" textLength="53" x="128" y="244.2139">TAI event</text><polygon fill="#A80036" points="560,274.4219,570,278.4219,560,282.4219,564,278.4219" style="stroke:#A80036;stroke-width:1.0;"/><line style="stroke:#A80036;stroke-width:1.0;stroke-dasharray:2.0,2.0;" x1="168.5" x2="566" y1="278.4219" y2="278.4219"/><text fill="#000000" font-family="sans-serif" font-size="13" lengthAdjust="spacing" textLength="53" x="343.75" y="273.5654">[5] Alarm</text><path d="M112,293.4219 L180,293.4219 L180,301.4219 L170,311.4219 L107,311.4219 L107,298.4219 A5,5 0 0 1 112,293.4219 " fill="#EEEEEE" style="stroke:#A0A0FF;stroke-width:1.0;"/><rect fill="none" height="48.7031" rx="5" ry="5" style="stroke:#A0A0FF;stroke-width:2.0;" width="418" x="107" y="293.4219"/><text fill="#000000" font-family="sans-serif" font-size="13" font-weight="bold" lengthAdjust="spacing" textLength="28" x="122" y="307.917">loop</text><text fill="#000000" font-family="sans-serif" font-size="11" font-weight="bold" lengthAdjust="spacing" textLength="296" x="195" y="306.8408">[at least one per MME that controls eNBs in valid TAIs]</text><polygon fill="#A80036" points="179.5,330.125,169.5,334.125,179.5,338.125,175.5,334.125" style="stroke:#A80036;stroke-width:1.0;"/><line style="stroke:#A80036;stroke-width:1.0;" x1="173.5" x2="459.5" y1="334.125" y2="334.125"/><text fill="#000000" font-family="sans-serif" font-size="13" lengthAdjust="spacing" textLength="266" x="181.5" y="329.2686">[6] WRITE-REPLACE WARNING INDICATION</text><polygon fill="#A80036" points="67,367.4766,57,371.4766,67,375.4766,63,371.4766" style="stroke:#A80036;stroke-width:1.0;"/><line style="stroke:#A80036;stroke-width:1.0;stroke-dasharray:2.0,2.0;" x1="61" x2="167.5" y1="371.4766" y2="371.4766"/><text fill="#000000" font-family="sans-serif" font-size="13" lengthAdjust="spacing" textLength="71" x="76.75" y="366.6201">[7] feedback</text><!--MD5=[2922df1deefc7baa593c6a77c55f606e]
@startuml
hide footbox
skinparam Shadowing false
skinparam BackgroundColor #f2f2f2
skinparam SequenceGroupBodyBackgroundColor transparent
skinparam roundcorner 10
skinparam ParticipantPadding 30
skinparam BoxPadding 10
skinparam SequenceGroupBorderColor #a0a0ff
skinparam SequenceMessageAlign center

participant CBE as cbe
participant CBC as cbc
collections MME as mme
participant FM as fm

cbe -> cbc: [1] CAP Alert
loop one per MME involved in this test
    cbc -> mme: [2] WRITE-REPLACE WARNING REQUEST
    mme -> cbc: [3] WRITE-REPLACE WARNING RESPONSE
end
cbc - -> cbe: [4] feedback
rnote over cbc
    Log unknown 
    TAI event
endrnote
cbc - -> fm: [5] Alarm

loop at least one per MME that controls eNBs in valid TAIs
    mme -> cbc: [6] WRITE-REPLACE WARNING INDICATION
end

cbc - -> cbe: [7] feedback


@enduml

PlantUML version 1.2022.0(Tue Jan 11 17:16:42 CET 2022)
(GPL source distribution)
Java Runtime: Java(TM) SE Runtime Environment
JVM: Java HotSpot(TM) Client VM
Default Encoding: Cp1252
Language: en
Country: GB
--></g></svg>