<?xml version="1.0" standalone="no"?>
<!DOCTYPE svg PUBLIC "-//W3C//DTD SVG 20010904//EN"
 "http://www.w3.org/TR/2001/REC-SVG-20010904/DTD/svg10.dtd">
<svg version="1.0" xmlns="http://www.w3.org/2000/svg"
 width="800.000000pt" height="800.000000pt" viewBox="0 0 800.000000 800.000000"
 preserveAspectRatio="xMidYMid meet">
<metadata>
Created by potrace 1.14, written by Peter Selinger 2001-2017
</metadata>
<g transform="translate(0.000000,800.000000) scale(0.100000,-0.100000)"
fill="#000000" stroke="none">
<path d="M1749 7336 c-2 -2 -29 -6 -59 -9 -139 -13 -325 -67 -471 -135 -228
-107 -417 -257 -588 -468 -42 -52 -132 -199 -176 -289 -49 -99 -131 -315 -120
-315 3 0 0 -12 -6 -27 -10 -26 -33 -130 -43 -190 -34 -210 -33 -485 3 -636 40
-168 102 -266 181 -287 81 -22 149 14 236 124 l31 40 13 -70 c31 -173 95 -359
151 -441 53 -77 132 -118 207 -108 79 10 197 106 268 219 16 25 32 45 36 46 4
0 20 -24 34 -52 15 -29 37 -70 50 -90 23 -36 24 -46 24 -208 l0 -170 -45 -66
c-25 -36 -45 -67 -45 -69 0 -2 -13 -26 -28 -52 -51 -87 -125 -284 -146 -388
-4 -16 -9 -41 -11 -55 -20 -98 -27 -345 -12 -465 10 -84 53 -257 84 -340 183
-492 572 -846 1094 -994 57 -16 124 -33 149 -36 25 -4 52 -9 60 -10 54 -10
249 -22 370 -24 l34 -1 -50 -52 c-64 -67 -148 -169 -181 -221 -82 -130 -143
-292 -167 -442 -13 -81 -14 -277 -2 -330 2 -11 5 -30 5 -41 1 -12 13 -33 28
-48 25 -26 32 -27 113 -25 244 5 472 89 665 243 176 140 345 379 401 566 10
34 23 64 29 65 5 2 91 6 190 9 113 3 206 11 250 21 39 9 80 18 92 21 71 14
236 85 373 162 86 48 193 71 365 77 382 14 676 101 950 282 451 299 712 795
700 1333 -1 85 -5 169 -8 185 -3 17 -8 44 -11 60 -34 184 -110 370 -225 548
l-61 94 0 162 0 163 53 94 c28 52 54 94 57 94 3 0 21 -24 40 -52 50 -74 138
-161 189 -187 49 -25 110 -33 158 -19 40 11 112 79 146 138 47 82 105 265 134
429 l8 44 44 -57 c103 -137 230 -155 314 -44 50 66 90 195 112 363 8 59 8 281
0 351 -10 87 -35 246 -40 254 -2 4 -7 21 -10 39 -3 18 -19 74 -35 126 -152
474 -458 828 -887 1026 -46 21 -83 36 -83 34 0 -2 -28 7 -61 20 -65 26 -216
61 -309 73 -71 9 -331 9 -395 0 -280 -40 -482 -115 -660 -246 -77 -56 -228
-201 -249 -239 -5 -10 -19 -28 -31 -41 l-22 -23 -53 21 c-137 54 -432 121
-610 138 -158 15 -580 7 -680 -13 -13 -2 -42 -7 -65 -10 -85 -13 -265 -57
-375 -93 -63 -20 -117 -37 -120 -37 -4 0 -33 32 -65 70 -213 251 -444 387
-760 449 -44 8 -93 18 -110 22 -35 7 -359 16 -366 10z"/>
</g>
</svg>
