<?xml version="1.0" encoding="UTF-8" standalone="no"?><svg xmlns="http://www.w3.org/2000/svg" xmlns:xlink="http://www.w3.org/1999/xlink" contentScriptType="application/ecmascript" contentStyleType="text/css" height="321px" preserveAspectRatio="none" style="width:459px;height:321px;background:#F2F2F2;" version="1.1" viewBox="0 0 459 321" width="459px" zoomAndPan="magnify"><defs/><g><line style="stroke:#A80036;stroke-width:1.0;stroke-dasharray:5.0,5.0;" x1="56" x2="56" y1="37.6094" y2="314.7734"/><line style="stroke:#A80036;stroke-width:1.0;stroke-dasharray:5.0,5.0;" x1="169.5" x2="169.5" y1="37.6094" y2="314.7734"/><line style="stroke:#A80036;stroke-width:1.0;stroke-dasharray:5.0,5.0;" x1="390.5" x2="390.5" y1="37.6094" y2="314.7734"/><rect fill="#FEFECE" height="31.6094" rx="5" ry="5" style="stroke:#A80036;stroke-width:1.5;" width="42" x="35" y="5"/><text fill="#000000" font-family="sans-serif" font-size="14" lengthAdjust="spacing" textLength="28" x="42" y="26.5332">CBE</text><rect fill="#FEFECE" height="31.6094" rx="5" ry="5" style="stroke:#A80036;stroke-width:1.5;" width="43" x="148.5" y="5"/><text fill="#000000" font-family="sans-serif" font-size="14" lengthAdjust="spacing" textLength="29" x="155.5" y="26.5332">CBC</text><rect fill="#FEFECE" height="31.6094" rx="5" ry="5" style="stroke:#A80036;stroke-width:1.5;" width="45" x="368.5" y="5"/><text fill="#000000" font-family="sans-serif" font-size="14" lengthAdjust="spacing" textLength="31" x="375.5" y="26.5332">MME</text><path d="M6,57.6094 L6,73.6094 A5,5 0 0 0 11,78.6094 L434,78.6094 A5,5 0 0 0 439,73.6094 L439,62.6094 L429,52.6094 L11,52.6094 A5,5 0 0 0 6,57.6094 " fill="#FBFB77" style="stroke:#A80036;stroke-width:1.0;"/><path d="M429,52.6094 L429,60.1094 A2.5,2.5 0 0 0 431.5,62.6094 L439,62.6094 L429,52.6094 " fill="#FBFB77" style="stroke:#A80036;stroke-width:1.0;"/><text fill="#000000" font-family="sans-serif" font-size="13" lengthAdjust="spacing" textLength="304" x="66.25" y="71.1045">Broadcast ongoing of an Alert in additional language.</text><polygon fill="#A80036" points="158,102.3125,168,106.3125,158,110.3125,162,106.3125" style="stroke:#A80036;stroke-width:1.0;"/><line style="stroke:#A80036;stroke-width:1.0;" x1="56" x2="164" y1="106.3125" y2="106.3125"/><text fill="#000000" font-family="sans-serif" font-size="13" lengthAdjust="spacing" textLength="90" x="68" y="101.4561">[1] CAP Cancel</text><polygon fill="#A80036" points="379,132.6641,389,136.6641,379,140.6641,383,136.6641" style="stroke:#A80036;stroke-width:1.0;"/><line style="stroke:#A80036;stroke-width:1.0;" x1="170" x2="385" y1="136.6641" y2="136.6641"/><text fill="#000000" font-family="sans-serif" font-size="13" lengthAdjust="spacing" textLength="186" x="187.5" y="131.8076">[2] STOP WARNING REQUEST</text><polygon fill="#A80036" points="181,163.0156,171,167.0156,181,171.0156,177,167.0156" style="stroke:#A80036;stroke-width:1.0;"/><line style="stroke:#A80036;stroke-width:1.0;" x1="175" x2="390" y1="167.0156" y2="167.0156"/><text fill="#000000" font-family="sans-serif" font-size="13" lengthAdjust="spacing" textLength="197" x="182" y="162.1592">[3] STOP WARNING RESPONSE</text><path d="M113.5,182.0156 L233.5,182.0156 L233.5,190.0156 L223.5,200.0156 L108.5,200.0156 L108.5,187.0156 A5,5 0 0 1 113.5,182.0156 " fill="#EEEEEE" style="stroke:#A0A0FF;stroke-width:1.0;"/><rect fill="none" height="115.7578" rx="5" ry="5" style="stroke:#A0A0FF;stroke-width:2.0;" width="345" x="108.5" y="182.0156"/><text fill="#000000" font-family="sans-serif" font-size="13" font-weight="bold" lengthAdjust="spacing" textLength="80" x="123.5" y="196.5107">One or more</text><rect fill="#FBFB77" height="57" rx="5" ry="5" style="stroke:#A80036;stroke-width:1.0;" width="72" x="355" y="205.3672"/><text fill="#000000" font-family="sans-serif" font-size="13" lengthAdjust="spacing" textLength="55" x="359" y="222.8623">Receiving</text><text fill="#000000" font-family="sans-serif" font-size="13" lengthAdjust="spacing" textLength="60" x="359" y="239.2139">responses</text><text fill="#000000" font-family="sans-serif" font-size="13" lengthAdjust="spacing" textLength="61" x="359" y="255.5654">from eNBs</text><polygon fill="#A80036" points="181,285.7734,171,289.7734,181,293.7734,177,289.7734" style="stroke:#A80036;stroke-width:1.0;"/><line style="stroke:#A80036;stroke-width:1.0;" x1="175" x2="390" y1="289.7734" y2="289.7734"/><text fill="#000000" font-family="sans-serif" font-size="13" lengthAdjust="spacing" textLength="195" x="183" y="284.917">[3] STOP WARNING INDICATION</text><!--MD5=[bdb153f6a9dd7124f411a20aa469dac9]
@startuml
hide footbox
skinparam Shadowing false
skinparam BackgroundColor #f2f2f2
skinparam SequenceGroupBodyBackgroundColor transparent
skinparam roundcorner 10
skinparam ParticipantPadding 30
skinparam BoxPadding 10
skinparam SequenceGroupBorderColor #a0a0ff
skinparam SequenceMessageAlign center

participant CBE as cbe
participant CBC as cbc
participant MME as mme


note across: Broadcast ongoing of an Alert in additional language.  

cbe -> cbc: [1] CAP Cancel
cbc -> mme: [2] STOP WARNING REQUEST
mme -> cbc: [3] STOP WARNING RESPONSE

group One or more
rnote over mme
 Receiving 
 responses 
 from eNBs
endrnote
mme -> cbc: [3] STOP WARNING INDICATION
end

@enduml

PlantUML version 1.2022.0(Tue Jan 11 17:16:42 CET 2022)
(GPL source distribution)
Java Runtime: Java(TM) SE Runtime Environment
JVM: Java HotSpot(TM) Client VM
Default Encoding: Cp1252
Language: en
Country: GB
--></g></svg>