<?xml version="1.0" encoding="UTF-8" standalone="no"?><svg xmlns="http://www.w3.org/2000/svg" xmlns:xlink="http://www.w3.org/1999/xlink" contentScriptType="application/ecmascript" contentStyleType="text/css" height="590px" preserveAspectRatio="none" style="width:541px;height:590px;background:#F2F2F2;" version="1.1" viewBox="0 0 541 590" width="541px" zoomAndPan="magnify"><defs/><g><line style="stroke:#A80036;stroke-width:1.0;stroke-dasharray:5.0,5.0;" x1="56" x2="56" y1="37.6094" y2="583.2344"/><line style="stroke:#A80036;stroke-width:1.0;stroke-dasharray:5.0,5.0;" x1="169.5" x2="169.5" y1="37.6094" y2="583.2344"/><line style="stroke:#A80036;stroke-width:1.0;stroke-dasharray:5.0,5.0;" x1="461.5" x2="461.5" y1="37.6094" y2="583.2344"/><rect fill="#FEFECE" height="31.6094" rx="5" ry="5" style="stroke:#A80036;stroke-width:1.5;" width="42" x="35" y="5"/><text fill="#000000" font-family="sans-serif" font-size="14" lengthAdjust="spacing" textLength="28" x="42" y="26.5332">CBE</text><rect fill="#FEFECE" height="31.6094" rx="5" ry="5" style="stroke:#A80036;stroke-width:1.5;" width="43" x="148.5" y="5"/><text fill="#000000" font-family="sans-serif" font-size="14" lengthAdjust="spacing" textLength="29" x="155.5" y="26.5332">CBC</text><rect fill="#FEFECE" height="31.6094" rx="5" ry="5" style="stroke:#A80036;stroke-width:1.5;" width="45" x="439.5" y="5"/><text fill="#000000" font-family="sans-serif" font-size="14" lengthAdjust="spacing" textLength="31" x="446.5" y="26.5332">MME</text><rect fill="#EEEEEE" height="3" style="stroke:#EEEEEE;stroke-width:1.0;" width="534.5" x="0" y="68.7852"/><line style="stroke:#000000;stroke-width:1.0;" x1="0" x2="534.5" y1="68.7852" y2="68.7852"/><line style="stroke:#000000;stroke-width:1.0;" x1="0" x2="534.5" y1="71.7852" y2="71.7852"/><rect fill="#EEEEEE" height="24.3516" style="stroke:#000000;stroke-width:2.0;" width="114" x="210.25" y="57.6094"/><text fill="#000000" font-family="sans-serif" font-size="13" font-weight="bold" lengthAdjust="spacing" textLength="96" x="216.25" y="75.1045">Start broadcast</text><polygon fill="#A80036" points="158,110.3125,168,114.3125,158,118.3125,162,114.3125" style="stroke:#A80036;stroke-width:1.0;"/><line style="stroke:#A80036;stroke-width:1.0;" x1="56" x2="164" y1="114.3125" y2="114.3125"/><text fill="#000000" font-family="sans-serif" font-size="13" lengthAdjust="spacing" textLength="77" x="74.5" y="109.4561">[1] CAP Alert</text><polygon fill="#A80036" points="450,140.6641,460,144.6641,450,148.6641,454,144.6641" style="stroke:#A80036;stroke-width:1.0;"/><line style="stroke:#A80036;stroke-width:1.0;" x1="170" x2="456" y1="144.6641" y2="144.6641"/><text fill="#000000" font-family="sans-serif" font-size="13" lengthAdjust="spacing" textLength="257" x="187.5" y="139.8076">[2] WRITE-REPLACE WARNING REQUEST</text><polygon fill="#A80036" points="181,171.0156,171,175.0156,181,179.0156,177,175.0156" style="stroke:#A80036;stroke-width:1.0;"/><line style="stroke:#A80036;stroke-width:1.0;" x1="175" x2="461" y1="175.0156" y2="175.0156"/><text fill="#000000" font-family="sans-serif" font-size="13" lengthAdjust="spacing" textLength="268" x="182" y="170.1592">[3] WRITE-REPLACE WARNING RESPONSE</text><rect fill="#EEEEEE" height="3" style="stroke:#EEEEEE;stroke-width:1.0;" width="534.5" x="0" y="204.1914"/><line style="stroke:#000000;stroke-width:1.0;" x1="0" x2="534.5" y1="204.1914" y2="204.1914"/><line style="stroke:#000000;stroke-width:1.0;" x1="0" x2="534.5" y1="207.1914" y2="207.1914"/><rect fill="#EEEEEE" height="24.3516" style="stroke:#000000;stroke-width:2.0;" width="124" x="205.25" y="193.0156"/><text fill="#000000" font-family="sans-serif" font-size="13" font-weight="bold" lengthAdjust="spacing" textLength="106" x="211.25" y="210.5107">Broadcast Active</text><path d="M6,237.3672 L6,253.3672 A5,5 0 0 0 11,258.3672 L505,258.3672 A5,5 0 0 0 510,253.3672 L510,242.3672 L500,232.3672 L11,232.3672 A5,5 0 0 0 6,237.3672 " fill="#FBFB77" style="stroke:#A80036;stroke-width:1.0;"/><path d="M500,232.3672 L500,239.8672 A2.5,2.5 0 0 0 502.5,242.3672 L510,242.3672 L500,232.3672 " fill="#FBFB77" style="stroke:#A80036;stroke-width:1.0;"/><text fill="#000000" font-family="sans-serif" font-size="13" lengthAdjust="spacing" textLength="276" x="115.75" y="250.8623">Broadcast runs for 2 broadcast periods or more.</text><rect fill="#EEEEEE" height="3" style="stroke:#EEEEEE;stroke-width:1.0;" width="534.5" x="0" y="284.8945"/><line style="stroke:#000000;stroke-width:1.0;" x1="0" x2="534.5" y1="284.8945" y2="284.8945"/><line style="stroke:#000000;stroke-width:1.0;" x1="0" x2="534.5" y1="287.8945" y2="287.8945"/><rect fill="#EEEEEE" height="24.3516" style="stroke:#000000;stroke-width:2.0;" width="114" x="210.25" y="273.7188"/><text fill="#000000" font-family="sans-serif" font-size="13" font-weight="bold" lengthAdjust="spacing" textLength="96" x="216.25" y="291.2139">Stop Broadcast</text><polygon fill="#A80036" points="158,326.4219,168,330.4219,158,334.4219,162,330.4219" style="stroke:#A80036;stroke-width:1.0;"/><line style="stroke:#A80036;stroke-width:1.0;" x1="56" x2="164" y1="330.4219" y2="330.4219"/><text fill="#000000" font-family="sans-serif" font-size="13" lengthAdjust="spacing" textLength="90" x="68" y="325.5654">[4] CAP Cancel</text><polygon fill="#A80036" points="450,356.7734,460,360.7734,450,364.7734,454,360.7734" style="stroke:#A80036;stroke-width:1.0;"/><line style="stroke:#A80036;stroke-width:1.0;" x1="170" x2="456" y1="360.7734" y2="360.7734"/><text fill="#000000" font-family="sans-serif" font-size="13" lengthAdjust="spacing" textLength="186" x="223" y="355.917">[5] STOP WARNING REQUEST</text><polygon fill="#A80036" points="181,387.125,171,391.125,181,395.125,177,391.125" style="stroke:#A80036;stroke-width:1.0;"/><line style="stroke:#A80036;stroke-width:1.0;" x1="175" x2="461" y1="391.125" y2="391.125"/><text fill="#000000" font-family="sans-serif" font-size="13" lengthAdjust="spacing" textLength="197" x="217.5" y="386.2686">[6] STOP WARNING RESPONSE</text><path d="M113.5,406.125 L233.5,406.125 L233.5,414.125 L223.5,424.125 L108.5,424.125 L108.5,411.125 A5,5 0 0 1 113.5,406.125 " fill="#EEEEEE" style="stroke:#A0A0FF;stroke-width:1.0;"/><rect fill="none" height="115.7578" rx="5" ry="5" style="stroke:#A0A0FF;stroke-width:2.0;" width="416" x="108.5" y="406.125"/><text fill="#000000" font-family="sans-serif" font-size="13" font-weight="bold" lengthAdjust="spacing" textLength="80" x="123.5" y="420.6201">One or more</text><rect fill="#FBFB77" height="57" rx="5" ry="5" style="stroke:#A80036;stroke-width:1.0;" width="72" x="426" y="429.4766"/><text fill="#000000" font-family="sans-serif" font-size="13" lengthAdjust="spacing" textLength="55" x="430" y="446.9717">Receiving</text><text fill="#000000" font-family="sans-serif" font-size="13" lengthAdjust="spacing" textLength="60" x="430" y="463.3232">responses</text><text fill="#000000" font-family="sans-serif" font-size="13" lengthAdjust="spacing" textLength="61" x="430" y="479.6748">from eNBs</text><polygon fill="#A80036" points="181,509.8828,171,513.8828,181,517.8828,177,513.8828" style="stroke:#A80036;stroke-width:1.0;"/><line style="stroke:#A80036;stroke-width:1.0;" x1="175" x2="461" y1="513.8828" y2="513.8828"/><text fill="#000000" font-family="sans-serif" font-size="13" lengthAdjust="spacing" textLength="195" x="218.5" y="509.0264">[7] STOP WARNING INDICATION</text><rect fill="#EEEEEE" height="3" style="stroke:#EEEEEE;stroke-width:1.0;" width="534.5" x="0" y="550.0586"/><line style="stroke:#000000;stroke-width:1.0;" x1="0" x2="534.5" y1="550.0586" y2="550.0586"/><line style="stroke:#000000;stroke-width:1.0;" x1="0" x2="534.5" y1="553.0586" y2="553.0586"/><rect fill="#EEEEEE" height="24.3516" style="stroke:#000000;stroke-width:2.0;" width="225" x="154.75" y="538.8828"/><text fill="#000000" font-family="sans-serif" font-size="13" font-weight="bold" lengthAdjust="spacing" textLength="207" x="160.75" y="556.3779">Broadcast cancelled completelly</text><!--MD5=[b58307337941ddf6eaed71f7e8960d13]
@startuml
hide footbox
skinparam Shadowing false
skinparam BackgroundColor #f2f2f2
skinparam SequenceGroupBodyBackgroundColor transparent
skinparam roundcorner 10
skinparam ParticipantPadding 30
skinparam BoxPadding 10
skinparam SequenceGroupBorderColor #a0a0ff
skinparam SequenceMessageAlign center

participant CBE as cbe
participant CBC as cbc
participant MME as mme

== Start broadcast ==
cbe -> cbc: [1] CAP Alert
cbc -> mme: [2] WRITE-REPLACE WARNING REQUEST
mme -> cbc: [3] WRITE-REPLACE WARNING RESPONSE 

== Broadcast Active ==
note across: Broadcast runs for 2 broadcast periods or more.  

== Stop Broadcast ==
cbe -> cbc: [4] CAP Cancel
cbc -> mme: [5] STOP WARNING REQUEST
mme -> cbc: [6] STOP WARNING RESPONSE

group One or more
rnote over mme
 Receiving 
 responses 
 from eNBs
endrnote
mme -> cbc: [7] STOP WARNING INDICATION
end

== Broadcast cancelled completelly ==

@enduml

PlantUML version 1.2022.0(Tue Jan 11 17:16:42 CET 2022)
(GPL source distribution)
Java Runtime: Java(TM) SE Runtime Environment
JVM: Java HotSpot(TM) Client VM
Default Encoding: Cp1252
Language: en
Country: GB
--></g></svg>